<svg width="24" height="24" viewBox="0 0 24 24" fill="none" xmlns="http://www.w3.org/2000/svg">
<path fill-rule="evenodd" clip-rule="evenodd" d="M14.357 9.77698V8.85714C14.357 7.55529 13.3017 6.5 11.9999 6.5C10.698 6.5 9.64272 7.55529 9.64272 8.85714V9.77698C8.7272 10.1005 8.07129 10.9737 8.07129 12V13.5714C8.07129 14.8733 9.12658 15.9286 10.4284 15.9286H13.5713C14.8731 15.9286 15.9284 14.8733 15.9284 13.5714V12C15.9284 10.9737 15.2725 10.1005 14.357 9.77698ZM11.2141 9.64286H12.7856V8.85714C12.7856 8.42319 12.4338 8.07143 11.9999 8.07143C11.5659 8.07143 11.2141 8.42319 11.2141 8.85714V9.64286ZM10.4284 11.2143C9.99448 11.2143 9.64272 11.5661 9.64272 12V13.5714C9.64272 14.0054 9.99448 14.3571 10.4284 14.3571H13.5713C14.0052 14.3571 14.357 14.0054 14.357 13.5714V12C14.357 11.5661 14.0052 11.2143 13.5713 11.2143H10.4284Z" fill="#316070"/>
<path fill-rule="evenodd" clip-rule="evenodd" d="M11.7931 1.02769C11.9284 0.99077 12.0713 0.99077 12.2066 1.02769L20.8494 3.38483C21.1913 3.47806 21.4284 3.78854 21.4284 4.14286V13.7686C21.4284 16.3563 20.0149 18.7374 17.7432 19.9766L12.3761 22.9041C12.1416 23.032 11.8581 23.032 11.6236 22.9041L6.25655 19.9766C3.98477 18.7374 2.57129 16.3563 2.57129 13.7686V4.14286C2.57129 3.78854 2.80843 3.47806 3.15027 3.38483L11.7931 1.02769ZM4.14272 4.74299V13.7686C4.14272 15.7813 5.2421 17.6333 7.00903 18.597L11.9999 21.3193L16.9907 18.597C18.7576 17.6333 19.857 15.7813 19.857 13.7686V4.74299L11.9999 2.60012L4.14272 4.74299Z" fill="#316070"/>
</svg>
