<svg width="62" height="62" viewBox="0 0 62 62" fill="none" xmlns="http://www.w3.org/2000/svg">
<rect width="62" height="62" rx="31" fill="#316070" fill-opacity="0.6"/>
<path d="M38.0003 18.166H24.0003C22.4538 18.1679 20.9711 18.783 19.8776 19.8766C18.784 20.9702 18.1688 22.4528 18.167 23.9993V33.3327C18.1687 34.6769 18.6338 35.9795 19.4838 37.0208C20.3339 38.0621 21.517 38.7786 22.8337 39.0493V42.666C22.8336 42.8772 22.8909 43.0845 22.9995 43.2657C23.108 43.4469 23.2637 43.5952 23.4499 43.6949C23.6362 43.7945 23.846 43.8417 24.0569 43.8315C24.2679 43.8212 24.4721 43.7539 24.6478 43.6367L31.3503 39.166H38.0003C39.5469 39.1642 41.0295 38.549 42.1231 37.4554C43.2166 36.3619 43.8318 34.8792 43.8337 33.3327V23.9993C43.8318 22.4528 43.2166 20.9702 42.1231 19.8766C41.0295 18.783 39.5469 18.1679 38.0003 18.166ZM35.667 32.166H26.3337C26.0242 32.166 25.7275 32.0431 25.5087 31.8243C25.2899 31.6055 25.167 31.3088 25.167 30.9993C25.167 30.6899 25.2899 30.3932 25.5087 30.1744C25.7275 29.9556 26.0242 29.8327 26.3337 29.8327H35.667C35.9764 29.8327 36.2732 29.9556 36.4919 30.1744C36.7107 30.3932 36.8337 30.6899 36.8337 30.9993C36.8337 31.3088 36.7107 31.6055 36.4919 31.8243C36.2732 32.0431 35.9764 32.166 35.667 32.166ZM38.0003 27.4993H24.0003C23.6909 27.4993 23.3942 27.3764 23.1754 27.1576C22.9566 26.9388 22.8337 26.6421 22.8337 26.3327C22.8337 26.0233 22.9566 25.7265 23.1754 25.5077C23.3942 25.2889 23.6909 25.166 24.0003 25.166H38.0003C38.3097 25.166 38.6065 25.2889 38.8253 25.5077C39.0441 25.7265 39.167 26.0233 39.167 26.3327C39.167 26.6421 39.0441 26.9388 38.8253 27.1576C38.6065 27.3764 38.3097 27.4993 38.0003 27.4993Z" fill="white"/>
</svg>
