<svg width="28" height="28" viewBox="0 0 28 28" fill="none" xmlns="http://www.w3.org/2000/svg">
<path d="M23 7H5C2.79086 7 1 8.79086 1 11V22C1 24.2092 2.79086 26 5 26H23C25.2092 26 27 24.2092 27 22V11C27 8.79086 25.2092 7 23 7Z" stroke="#7C7C7C" stroke-width="1.5" stroke-linecap="round" stroke-linejoin="round"/>
<path d="M8 26V7" stroke="#7C7C7C" stroke-width="1.5" stroke-linecap="round" stroke-linejoin="round"/>
<path d="M20 26V7" stroke="#7C7C7C" stroke-width="1.5" stroke-linecap="round" stroke-linejoin="round"/>
<path d="M9 7C9 5.67392 9.52678 4.40214 10.4645 3.46446C11.4021 2.52678 12.6739 2 14 2C15.3261 2 16.5979 2.52678 17.5355 3.46446C18.4732 4.40214 19 5.67392 19 7" stroke="#7C7C7C" stroke-width="1.5" stroke-linecap="round" stroke-linejoin="round"/>
</svg>
