<svg width="28" height="28" viewBox="0 0 28 28" fill="none" xmlns="http://www.w3.org/2000/svg">
<g clip-path="url(#clip0_3927_15264)">
<path d="M17.4599 4.41959C21.64 1.5996 25.12 0.299595 26.4 1.59959C28.4 3.59959 24.32 10.7196 17.5199 17.5996C10.7199 24.4795 3.51986 28.4795 1.51986 26.4795C0.204924 25.1647 1.47963 21.5687 4.50228 17.2959" stroke="#7C7C7C" stroke-width="1.5" stroke-linecap="round" stroke-linejoin="round"/>
<path d="M10.8789 23.507C11.8854 23.8328 12.9384 23.9994 13.9997 23.999C15.6755 24 17.3247 23.58 18.7958 22.7772C20.2669 21.9746 21.5127 20.8152 22.4187 19.4053C23.3247 17.9956 23.8617 16.3807 23.9809 14.7091C24.0759 13.373 23.9015 12.0349 23.4715 10.7734" stroke="#7C7C7C" stroke-width="1.5" stroke-linecap="round" stroke-linejoin="round"/>
<path d="M6.00001 20C4.55571 18.0743 3.85453 15.6922 4.02517 13.2911C4.19581 10.89 5.22683 8.63105 6.92893 6.92893C8.63105 5.22683 10.89 4.19581 13.2911 4.02517C15.6922 3.85453 18.0743 4.55571 20 6.00001" stroke="#7C7C7C" stroke-width="1.5" stroke-linecap="round" stroke-linejoin="round"/>
</g>
<defs>
<clipPath id="clip0_3927_15264">
<rect width="28" height="28" fill="white"/>
</clipPath>
</defs>
</svg>
