<svg width="45" height="45" viewBox="0 0 45 45" fill="none" xmlns="http://www.w3.org/2000/svg">
<circle cx="22.5" cy="22.5" r="22.5" fill="#316070"/>
<path d="M31.2492 20.0938C31.0759 20.096 30.9102 20.1659 30.7877 20.2885C30.6651 20.4111 30.5952 20.5767 30.5929 20.75V26L26.9354 21.8175C26.7031 21.5701 26.4225 21.3729 26.1109 21.2382C25.7994 21.1034 25.4636 21.0339 25.1242 21.0339C24.7848 21.0339 24.449 21.1034 24.1374 21.2382C23.8259 21.3729 23.5453 21.5701 23.3129 21.8175L20.8017 24.6875L19.9792 23.69C19.7525 23.4181 19.4689 23.1994 19.1483 23.0493C18.8278 22.8992 18.4782 22.8214 18.1242 22.8214C17.7702 22.8214 17.4206 22.8992 17.1 23.0493C16.7795 23.1994 16.4958 23.4181 16.2692 23.69L14.4054 25.9388V17.25C14.4078 16.4965 14.7081 15.7745 15.2409 15.2417C15.7737 14.7089 16.4957 14.4086 17.2492 14.4063H24.2492C24.4232 14.4063 24.5902 14.3371 24.7132 14.214C24.8363 14.091 24.9054 13.924 24.9054 13.75C24.9054 13.576 24.8363 13.409 24.7132 13.286C24.5902 13.1629 24.4232 13.0938 24.2492 13.0938H17.2492C16.1469 13.0938 15.0897 13.5316 14.3103 14.3111C13.5308 15.0905 13.0929 16.1477 13.0929 17.25V27.75C13.0888 27.7643 13.0888 27.7795 13.0929 27.7938C13.1045 28.8885 13.5474 29.9344 14.3256 30.7044C15.1038 31.4744 16.1544 31.9063 17.2492 31.9063H27.7492C28.8395 31.9041 29.8852 31.4736 30.661 30.7076C31.4369 29.9416 31.8806 28.9014 31.8967 27.8113V20.75C31.8945 20.5781 31.8258 20.4138 31.7051 20.2915C31.5844 20.1691 31.421 20.0983 31.2492 20.0938ZM27.7492 30.5938H17.2492C16.5344 30.5915 15.8467 30.3201 15.323 29.8337C14.7993 29.3472 14.4779 28.6814 14.4229 27.9688L17.2492 24.53C17.3551 24.4121 17.4846 24.3177 17.6293 24.2532C17.774 24.1886 17.9307 24.1552 18.0892 24.1552C18.2477 24.1552 18.4044 24.1886 18.5491 24.2532C18.6938 24.3177 18.8233 24.4121 18.9292 24.53L20.2504 26.1225C20.311 26.1962 20.3872 26.2556 20.4734 26.2964C20.5596 26.3373 20.6538 26.3585 20.7492 26.3588C20.9381 26.3483 21.1162 26.2671 21.2479 26.1313L24.2579 22.6838C24.365 22.571 24.494 22.4811 24.6369 22.4198C24.7798 22.3584 24.9337 22.3267 25.0892 22.3267C25.2447 22.3267 25.3986 22.3584 25.5415 22.4198C25.6844 22.4811 25.8134 22.571 25.9204 22.6838L30.5317 27.9338C30.4877 28.6459 30.1769 29.3153 29.6611 29.8084C29.1453 30.3015 28.4626 30.5819 27.7492 30.5938Z" fill="white"/>
<path d="M15.7188 18.125C15.7188 18.6009 15.8599 19.0661 16.1243 19.4618C16.3887 19.8575 16.7645 20.166 17.2042 20.3481C17.6439 20.5302 18.1277 20.5779 18.5944 20.485C19.0612 20.3922 19.49 20.163 19.8265 19.8265C20.163 19.49 20.3922 19.0612 20.485 18.5944C20.5779 18.1277 20.5302 17.6439 20.3481 17.2042C20.166 16.7645 19.8575 16.3887 19.4618 16.1243C19.0661 15.8599 18.6009 15.7188 18.125 15.7188C17.4868 15.7188 16.8748 15.9723 16.4235 16.4235C15.9723 16.8748 15.7188 17.4868 15.7188 18.125ZM19.2187 18.125C19.2187 18.3413 19.1546 18.5528 19.0344 18.7327C18.9142 18.9125 18.7434 19.0527 18.5436 19.1355C18.3437 19.2183 18.1238 19.2399 17.9116 19.1977C17.6995 19.1555 17.5046 19.0514 17.3516 18.8984C17.1986 18.7454 17.0945 18.5505 17.0523 18.3384C17.0101 18.1262 17.0317 17.9063 17.1145 17.7064C17.1973 17.5066 17.3375 17.3358 17.5173 17.2156C17.6972 17.0954 17.9087 17.0312 18.125 17.0312C18.4151 17.0312 18.6933 17.1465 18.8984 17.3516C19.1035 17.5567 19.2187 17.8349 19.2187 18.125Z" fill="white"/>
<path d="M26 17.0312H27.9688V19C27.9688 19.174 28.0379 19.341 28.161 19.464C28.284 19.5871 28.451 19.6562 28.625 19.6562C28.799 19.6562 28.966 19.5871 29.089 19.464C29.2121 19.341 29.2812 19.174 29.2812 19V17.0312H31.25C31.424 17.0312 31.591 16.9621 31.714 16.839C31.8371 16.716 31.9062 16.549 31.9062 16.375C31.9062 16.201 31.8371 16.034 31.714 15.911C31.591 15.7879 31.424 15.7188 31.25 15.7188H29.2812V13.75C29.2812 13.576 29.2121 13.409 29.089 13.286C28.966 13.1629 28.799 13.0938 28.625 13.0938C28.451 13.0938 28.284 13.1629 28.161 13.286C28.0379 13.409 27.9688 13.576 27.9688 13.75V15.7188H26C25.826 15.7188 25.659 15.7879 25.536 15.911C25.4129 16.034 25.3438 16.201 25.3438 16.375C25.3438 16.549 25.4129 16.716 25.536 16.839C25.659 16.9621 25.826 17.0312 26 17.0312Z" fill="white"/>
</svg>
