<svg width="28" height="28" viewBox="0 0 28 28" fill="none" xmlns="http://www.w3.org/2000/svg">
<path d="M4.08317 6.41732C7.2915 6.41732 18.0832 7.58398 18.0832 10.5007C18.0832 12.5553 11.0832 18.6673 9.9165 19.2507C8.74984 19.834 6.99984 18.084 4.08317 15.7507L2.9165 18.084M15.7499 8.45898C12.0165 11.7277 11.084 13.4173 14.5839 15.1673C18.0838 16.9173 19.8331 15.7507 15.7499 25.6673H18.0832M18.0832 10.1502C18.0832 13.4173 24.4998 12.834 24.4998 9.33398M22.1665 4.66727C22.1665 5.95593 21.1218 7.00062 19.8331 7.00065C18.5445 7.00068 17.4998 5.95603 17.4998 4.66736C17.4999 3.3787 18.5446 2.33401 19.8332 2.33398C21.1219 2.33396 22.1665 3.3786 22.1665 4.66727Z" stroke="#7C7C7C" stroke-width="1.5" stroke-linecap="round" stroke-linejoin="round"/>
</svg>
