<svg width="96" height="173" viewBox="0 0 96 173" fill="none" xmlns="http://www.w3.org/2000/svg">
<path d="M72.5005 0.000616794L77.4097 7.13501L68.7765 7.81933L72.5005 0.000616794ZM23.5002 172.499L19.2338 164.962L27.8937 165.036L23.5002 172.499ZM73.7833 6.6931C75.5146 31.9024 73.4169 47.2756 69.201 57.9579C64.9775 68.6594 58.6504 74.5818 52.1664 80.8875C45.6939 87.1821 39.0138 93.8995 33.8011 106.253C28.5793 118.628 24.81 136.712 24.3074 165.745L22.8076 165.719C23.3121 136.582 27.095 118.287 32.4191 105.67C37.7522 93.0308 44.6116 86.1422 51.1206 79.8122C57.6182 73.4933 63.7149 67.7725 67.8057 57.4073C71.9041 47.0228 74.0113 31.9056 72.2868 6.79588L73.7833 6.6931Z" fill="white"/>
</svg>
