<svg width="62" height="62" viewBox="0 0 62 62" fill="none" xmlns="http://www.w3.org/2000/svg">
<rect width="62" height="62" rx="31" fill="#316070" fill-opacity="0.6"/>
<path d="M29.9946 42.8335C30.2612 43.1002 30.6229 43.25 31 43.25C31.3771 43.25 31.7388 43.1002 32.0054 42.8335C32.2721 42.5669 32.4219 42.2052 32.4219 41.8281V20.1719C32.4219 19.7948 32.2721 19.4331 32.0054 19.1665C31.7388 18.8998 31.3771 18.75 31 18.75C30.6229 18.75 30.2612 18.8998 29.9946 19.1665C29.7279 19.4331 29.5781 19.7948 29.5781 20.1719V41.8281C29.5781 42.2052 29.7279 42.5669 29.9946 42.8335Z" fill="white" stroke="white" stroke-width="0.5"/>
<path d="M20.1719 32.4219H41.8281C42.2052 32.4219 42.5669 32.2721 42.8335 32.0054C43.1002 31.7388 43.25 31.3771 43.25 31C43.25 30.6229 43.1002 30.2612 42.8335 29.9946C42.5669 29.7279 42.2052 29.5781 41.8281 29.5781H20.1719C19.7948 29.5781 19.4331 29.7279 19.1665 29.9946C18.8998 30.2612 18.75 30.6229 18.75 31C18.75 31.3771 18.8998 31.7388 19.1665 32.0054C19.4331 32.2721 19.7948 32.4219 20.1719 32.4219Z" fill="white" stroke="white" stroke-width="0.5"/>
</svg>
