<svg width="28" height="28" viewBox="0 0 28 28" fill="none" xmlns="http://www.w3.org/2000/svg">
<path d="M6.90912 1C3.64509 1 0.999393 4.05116 0.999393 7.79163C0.968982 9.02831 1.27309 10.2447 1.86102 11.3294C2.45909 12.4039 3.33085 13.306 4.39521 13.9345L4.54726 14.0257V24.6491C4.54726 25.2775 4.79054 25.8756 5.23656 26.3115C5.68257 26.7575 6.27051 27.0008 6.89899 27.0008C7.52746 27.0008 8.12553 26.7575 8.56141 26.3115C8.99729 25.8756 9.25071 25.2674 9.25071 24.6491V14.0257L9.40276 13.9345C10.4671 13.306 11.3389 12.4039 11.937 11.3294C12.535 10.2549 12.829 9.02831 12.8087 7.80176C12.8087 4.05116 10.163 1 6.90912 1ZM10.8523 10.9137C10.2847 11.8565 9.46358 12.6167 8.47018 13.1033C8.34854 13.154 8.25731 13.2249 8.19649 13.3263C8.13567 13.4074 8.09512 13.5189 8.09512 13.6405V24.6491C8.09512 24.9633 7.97348 25.2674 7.75047 25.4904C7.52746 25.7134 7.22336 25.8351 6.90912 25.8351C6.59488 25.8351 6.29078 25.7134 6.06777 25.4904C5.84476 25.2674 5.72312 24.9633 5.72312 24.6491V13.6405C5.72312 13.5189 5.69271 13.4074 5.62175 13.3162C5.56093 13.2148 5.4697 13.1438 5.3582 13.1033C4.35466 12.6167 3.53358 11.8565 2.96592 10.9137C2.39827 9.96089 2.12457 8.8864 2.17526 7.78149C2.17526 6.29139 2.66182 4.88238 3.55386 3.81802C4.44589 2.75366 5.64203 2.16573 6.90912 2.16573C9.52441 2.16573 11.6531 4.68978 11.6531 7.79163C11.6937 8.8864 11.42 9.96089 10.8523 10.9137Z" fill="#7C7C7C"/>
<path d="M26.0066 1.17232C25.8951 1.28383 25.8343 1.42574 25.8343 1.58793V10.4576C25.8343 11.2483 25.5302 11.9984 24.9625 12.5559C24.405 13.1033 23.6447 13.4277 22.8642 13.4277C22.7121 13.4277 22.5601 13.4885 22.4486 13.6C22.3472 13.7014 22.2864 13.8433 22.2864 14.0055V24.6491C22.2864 24.9633 22.1648 25.2674 21.9418 25.4904C21.4957 25.9364 20.7051 25.9364 20.2591 25.4904C20.036 25.2674 19.9144 24.9633 19.9144 24.6491V14.0055C19.9144 13.8534 19.8536 13.7014 19.7421 13.5899C19.6306 13.4783 19.4785 13.4175 19.3265 13.4175C18.5358 13.4175 17.7857 13.1134 17.2282 12.5458C16.6706 11.9882 16.3564 11.2381 16.3564 10.4475V1.58793C16.3564 1.43588 16.2956 1.28383 16.1841 1.17232C16.0827 1.06082 15.9307 1 15.7786 1C15.6266 1 15.4745 1.06082 15.363 1.17232C15.2515 1.28383 15.1907 1.42574 15.1907 1.58793V10.4576C15.1907 11.4104 15.5252 12.3329 16.1233 13.0729C16.7213 13.8129 17.5627 14.3197 18.4953 14.5123L18.7385 14.563V24.6592C18.7385 25.2877 18.9818 25.8857 19.4278 26.3216C19.8739 26.7676 20.4618 27.0109 21.0903 27.0109C21.7086 27.0109 22.3168 26.7575 22.7527 26.3216C23.1886 25.8857 23.442 25.2775 23.442 24.6592V14.563L23.6853 14.5123C24.6179 14.3197 25.4592 13.8129 26.0573 13.0729C26.6553 12.3329 26.9899 11.4104 26.9899 10.4576V1.58793C26.9899 1.43588 26.929 1.28383 26.8175 1.17232C26.6249 0.959453 26.2093 0.959453 26.0066 1.17232Z" fill="#7C7C7C"/>
<path d="M19.3265 11.0253C19.4886 11.0253 19.6306 10.9644 19.7421 10.8631C19.8536 10.7516 19.9144 10.5995 19.9144 10.4475V1.58793C19.9144 1.43588 19.8536 1.28383 19.7421 1.17232C19.6306 1.06082 19.4785 1 19.3265 1C19.1744 1 19.0224 1.06082 18.9109 1.17232C18.7993 1.28383 18.7385 1.42574 18.7385 1.58793V10.4576C18.7385 10.6096 18.7993 10.7617 18.9109 10.8732C19.0122 10.9644 19.1643 11.0253 19.3265 11.0253Z" fill="#7C7C7C"/>
<path d="M23.2798 10.8631C23.3913 10.7516 23.4521 10.5995 23.4521 10.4475V1.58793C23.4521 1.43588 23.3913 1.28383 23.2798 1.17232C23.1784 1.06082 23.0264 1 22.8743 1C22.7223 1 22.5702 1.06082 22.4587 1.17232C22.3472 1.28383 22.2864 1.42574 22.2864 1.58793V10.4576C22.2864 10.6096 22.3472 10.7617 22.4587 10.8732C22.6614 11.0759 23.077 11.0759 23.2798 10.8631Z" fill="#7C7C7C"/>
</svg>
