<svg width="36" height="36" viewBox="0 0 36 36" fill="none" xmlns="http://www.w3.org/2000/svg">
<path d="M18 33C26.2844 33 33 26.2844 33 18C33 9.71573 26.2844 3 18 3C9.71573 3 3 9.71573 3 18C3 26.2844 9.71573 33 18 33Z" stroke="#D1D5DB" stroke-width="2"/>
<path d="M4.15332 23.7698H8.19178C9.26285 23.7698 10.2901 23.3443 11.0474 22.587C11.8048 21.8296 12.2302 20.8024 12.2302 19.7313V16.2698C12.2302 15.1987 12.6557 14.1715 13.4131 13.4142C14.1704 12.6568 15.1976 12.2313 16.2687 12.2313C17.3398 12.2313 18.367 11.8059 19.1243 11.0485C19.8817 10.2911 20.3072 9.26396 20.3072 8.19289V3.16211" stroke="#D1D5DB" stroke-width="2"/>
<path d="M32.9999 17.7688C31.8445 17.1693 30.5632 16.8529 29.2615 16.8457H24.3461C23.275 16.8457 22.2478 17.2712 21.4904 18.0285C20.7331 18.7859 20.3076 19.8131 20.3076 20.8842C20.3076 21.9552 20.7331 22.9824 21.4904 23.7398C22.2478 24.4972 23.275 24.9226 24.3461 24.9226C25.1111 24.9226 25.8449 25.2266 26.3858 25.7675C26.9268 26.3084 27.2307 27.0422 27.2307 27.8072V29.8149" stroke="#D1D5DB" stroke-width="2"/>
</svg>
