<svg width="24" height="24" viewBox="0 0 24 24" fill="none" xmlns="http://www.w3.org/2000/svg">
<path d="M21.6004 16.5606V17.5606C22.1527 17.5606 22.6004 17.1129 22.6004 16.5606H21.6004ZM21.6004 11.2806H22.6004C22.6004 10.7283 22.1527 10.2806 21.6004 10.2806V11.2806ZM7.13963 6.11945C6.67506 6.4181 6.54056 7.03681 6.83921 7.50138C7.13786 7.96595 7.75658 8.10046 8.22115 7.8018L7.13963 6.11945ZM14.4004 2.64062L15.1897 2.02668C14.872 1.61814 14.295 1.51957 13.8596 1.79945L14.4004 2.64062ZM16.971 7.57457C17.3101 8.01051 17.9384 8.08905 18.3743 7.74998C18.8103 7.41091 18.8888 6.78263 18.5497 6.34669L16.971 7.57457ZM21.6004 15.5606H18.4804V17.5606H21.6004V15.5606ZM18.4804 12.2806H21.6004V10.2806H18.4804V12.2806ZM20.6004 11.2806V16.5606H22.6004V11.2806H20.6004ZM16.8404 13.9206C16.8404 13.0149 17.5746 12.2806 18.4804 12.2806V10.2806C16.4701 10.2806 14.8404 11.9103 14.8404 13.9206H16.8404ZM18.4804 15.5606C17.5746 15.5606 16.8404 14.8264 16.8404 13.9206H14.8404C14.8404 15.9309 16.4701 17.5606 18.4804 17.5606V15.5606ZM8.22115 7.8018L14.9411 3.4818L13.8596 1.79945L7.13963 6.11945L8.22115 7.8018ZM13.611 3.25457L16.971 7.57457L18.5497 6.34669L15.1897 2.02668L13.611 3.25457ZM3.36039 7.96063H19.6804V5.96063H3.36039V7.96063ZM19.6804 20.3606H3.36039V22.3606H19.6804V20.3606ZM3.40039 20.4006V7.92063H1.40039V20.4006H3.40039ZM3.36039 20.3606C3.38248 20.3606 3.40039 20.3785 3.40039 20.4006H1.40039C1.40039 21.4831 2.27791 22.3606 3.36039 22.3606V20.3606ZM19.6404 20.4006C19.6404 20.3785 19.6583 20.3606 19.6804 20.3606V22.3606C20.7629 22.3606 21.6404 21.4831 21.6404 20.4006H19.6404ZM19.6804 7.96063C19.6583 7.96063 19.6404 7.94272 19.6404 7.92063H21.6404C21.6404 6.83815 20.7629 5.96063 19.6804 5.96063V7.96063ZM3.36039 5.96063C2.27791 5.96063 1.40039 6.83815 1.40039 7.92063H3.40039C3.40039 7.94272 3.38248 7.96063 3.36039 7.96063V5.96063ZM19.6404 17.2806V20.4006H21.6404V17.2806H19.6404ZM19.6404 7.92063V10.4406H21.6404V7.92063H19.6404Z" fill="#316070"/>
</svg>
