<svg width="28" height="28" viewBox="0 0 28 28" fill="none" xmlns="http://www.w3.org/2000/svg">
<path d="M19 7C19 6.40666 19.1759 5.82664 19.5056 5.33329C19.8352 4.83994 20.3038 4.45543 20.8519 4.22836C21.4001 4.0013 22.0033 3.94189 22.5853 4.05765C23.1672 4.1734 23.7018 4.45912 24.1213 4.87868C24.5409 5.29824 24.8266 5.83279 24.9424 6.41473C25.0581 6.99667 24.9987 7.59987 24.7716 8.14805C24.5446 8.69623 24.1601 9.16476 23.6667 9.49441C23.1734 9.82405 22.5933 10 22 10C21.2043 10 20.4413 9.68393 19.8787 9.12132C19.3161 8.55871 19 7.79565 19 7ZM4 8H16C16.2652 8 16.5196 7.89464 16.7071 7.70711C16.8946 7.51957 17 7.26522 17 7C17 6.73478 16.8946 6.48043 16.7071 6.29289C16.5196 6.10536 16.2652 6 16 6H4C3.73478 6 3.48043 6.10536 3.29289 6.29289C3.10536 6.48043 3 6.73478 3 7C3 7.26522 3.10536 7.51957 3.29289 7.70711C3.48043 7.89464 3.73478 8 4 8ZM10 11C9.38106 11.0017 8.7778 11.1949 8.27293 11.5529C7.76807 11.911 7.38631 12.4164 7.18 13H4C3.73478 13 3.48043 13.1054 3.29289 13.2929C3.10536 13.4804 3 13.7348 3 14C3 14.2652 3.10536 14.5196 3.29289 14.7071C3.48043 14.8946 3.73478 15 4 15H7.18C7.36345 15.5189 7.6861 15.9773 8.11264 16.3251C8.53918 16.6729 9.05317 16.8966 9.59836 16.9718C10.1435 17.0471 10.6989 16.9709 11.2037 16.7516C11.7085 16.5323 12.1432 16.1784 12.4603 15.7286C12.7775 15.2788 12.9647 14.7504 13.0017 14.2013C13.0386 13.6522 12.9238 13.1035 12.6697 12.6153C12.4157 12.1271 12.0323 11.7181 11.5614 11.4332C11.0905 11.1483 10.5504 10.9985 10 11ZM24 13H16C15.7348 13 15.4804 13.1054 15.2929 13.2929C15.1054 13.4804 15 13.7348 15 14C15 14.2652 15.1054 14.5196 15.2929 14.7071C15.4804 14.8946 15.7348 15 16 15H24C24.2652 15 24.5196 14.8946 24.7071 14.7071C24.8946 14.5196 25 14.2652 25 14C25 13.7348 24.8946 13.4804 24.7071 13.2929C24.5196 13.1054 24.2652 13 24 13ZM12 20H4C3.73478 20 3.48043 20.1054 3.29289 20.2929C3.10536 20.4804 3 20.7348 3 21C3 21.2652 3.10536 21.5196 3.29289 21.7071C3.48043 21.8946 3.73478 22 4 22H12C12.2652 22 12.5196 21.8946 12.7071 21.7071C12.8946 21.5196 13 21.2652 13 21C13 20.7348 12.8946 20.4804 12.7071 20.2929C12.5196 20.1054 12.2652 20 12 20ZM24 20H20.82C20.5841 19.3328 20.1199 18.7704 19.5095 18.4124C18.8991 18.0543 18.1818 17.9235 17.4843 18.0432C16.7868 18.1629 16.154 18.5253 15.6979 19.0663C15.2418 19.6074 14.9916 20.2923 14.9916 21C14.9916 21.7077 15.2418 22.3926 15.6979 22.9337C16.154 23.4747 16.7868 23.8371 17.4843 23.9568C18.1818 24.0765 18.8991 23.9457 19.5095 23.5876C20.1199 23.2295 20.5841 22.6672 20.82 22H24C24.2652 22 24.5196 21.8946 24.7071 21.7071C24.8946 21.5196 25 21.2652 25 21C25 20.7348 24.8946 20.4804 24.7071 20.2929C24.5196 20.1054 24.2652 20 24 20Z" fill="#333333"/>
</svg>
