<svg width="32" height="32" viewBox="0 0 32 32" fill="none" xmlns="http://www.w3.org/2000/svg">
<g opacity="0.6" filter="url(#filter0_b_3501_117237)">
<rect width="32" height="32" rx="8" fill="black"/>
</g>
<path d="M10.57 21.1067C10.57 21.1067 10.63 21.1067 10.6525 21.1067L12.85 20.9042C13.1575 20.8742 13.4425 20.7392 13.66 20.5217L21.955 12.2267C22.345 11.8367 22.5625 11.3192 22.5625 10.7717C22.5625 10.2242 22.345 9.70672 21.955 9.31672L21.4225 8.78422C20.6425 8.00422 19.285 8.00422 18.505 8.78422L17.4475 9.84172L10.2175 17.0717C10 17.2892 9.865 17.5742 9.8425 17.8817L9.64 20.0792C9.6175 20.3567 9.715 20.6267 9.91 20.8292C10.09 21.0092 10.3225 21.1067 10.57 21.1067ZM19.9675 9.30172C20.2075 9.30172 20.4475 9.39172 20.6275 9.57922L21.16 10.1117C21.34 10.2917 21.4375 10.5242 21.4375 10.7717C21.4375 11.0192 21.34 11.2592 21.16 11.4317L20.5 12.0917L18.6475 10.2392L19.3075 9.57922C19.4875 9.39922 19.7275 9.30172 19.9675 9.30172ZM10.96 17.9867C10.96 17.9417 10.9825 17.9042 11.0125 17.8742L17.845 11.0342L19.6975 12.8867L12.865 19.7192C12.865 19.7192 12.79 19.7717 12.7525 19.7717L10.78 19.9517L10.96 17.9792V17.9867ZM24.0625 23.4992C24.0625 23.8067 23.8075 24.0617 23.5 24.0617H8.5C8.1925 24.0617 7.9375 23.8067 7.9375 23.4992C7.9375 23.1917 8.1925 22.9367 8.5 22.9367H23.5C23.8075 22.9367 24.0625 23.1917 24.0625 23.4992Z" fill="white"/>
<defs>
<filter id="filter0_b_3501_117237" x="-70" y="-70" width="172" height="172" filterUnits="userSpaceOnUse" color-interpolation-filters="sRGB">
<feFlood flood-opacity="0" result="BackgroundImageFix"/>
<feGaussianBlur in="BackgroundImageFix" stdDeviation="35"/>
<feComposite in2="SourceAlpha" operator="in" result="effect1_backgroundBlur_3501_117237"/>
<feBlend mode="normal" in="SourceGraphic" in2="effect1_backgroundBlur_3501_117237" result="shape"/>
</filter>
</defs>
</svg>
