<svg width="86" height="86" viewBox="0 0 86 86" fill="none" xmlns="http://www.w3.org/2000/svg">
<g filter="url(#filter0_bd_3501_114739)">
<rect x="10" y="10" width="62" height="62" rx="31" fill="#316070" fill-opacity="0.6" shape-rendering="crispEdges"/>
<path d="M48.0003 28.166H34.0003C32.4538 28.1679 30.9711 28.783 29.8776 29.8766C28.784 30.9702 28.1688 32.4528 28.167 33.9993V43.3327C28.1687 44.6769 28.6338 45.9795 29.4838 47.0208C30.3339 48.0621 31.517 48.7786 32.8337 49.0493V52.666C32.8336 52.8772 32.8909 53.0845 32.9995 53.2657C33.108 53.4469 33.2637 53.5952 33.4499 53.6949C33.6362 53.7945 33.846 53.8417 34.0569 53.8315C34.2679 53.8212 34.4721 53.7539 34.6478 53.6367L41.3503 49.166H48.0003C49.5469 49.1642 51.0295 48.549 52.1231 47.4554C53.2166 46.3619 53.8318 44.8792 53.8337 43.3327V33.9993C53.8318 32.4528 53.2166 30.9702 52.1231 29.8766C51.0295 28.783 49.5469 28.1679 48.0003 28.166ZM45.667 42.166H36.3337C36.0242 42.166 35.7275 42.0431 35.5087 41.8243C35.2899 41.6055 35.167 41.3088 35.167 40.9993C35.167 40.6899 35.2899 40.3932 35.5087 40.1744C35.7275 39.9556 36.0242 39.8327 36.3337 39.8327H45.667C45.9764 39.8327 46.2732 39.9556 46.4919 40.1744C46.7107 40.3932 46.8337 40.6899 46.8337 40.9993C46.8337 41.3088 46.7107 41.6055 46.4919 41.8243C46.2732 42.0431 45.9764 42.166 45.667 42.166ZM48.0003 37.4993H34.0003C33.6909 37.4993 33.3942 37.3764 33.1754 37.1576C32.9566 36.9388 32.8337 36.6421 32.8337 36.3327C32.8337 36.0233 32.9566 35.7265 33.1754 35.5077C33.3942 35.2889 33.6909 35.166 34.0003 35.166H48.0003C48.3097 35.166 48.6065 35.2889 48.8253 35.5077C49.0441 35.7265 49.167 36.0233 49.167 36.3327C49.167 36.6421 49.0441 36.9388 48.8253 37.1576C48.6065 37.3764 48.3097 37.4993 48.0003 37.4993Z" fill="white"/>
</g>
<defs>
<filter id="filter0_bd_3501_114739" x="0" y="0" width="86" height="86" filterUnits="userSpaceOnUse" color-interpolation-filters="sRGB">
<feFlood flood-opacity="0" result="BackgroundImageFix"/>
<feGaussianBlur in="BackgroundImageFix" stdDeviation="5"/>
<feComposite in2="SourceAlpha" operator="in" result="effect1_backgroundBlur_3501_114739"/>
<feColorMatrix in="SourceAlpha" type="matrix" values="0 0 0 0 0 0 0 0 0 0 0 0 0 0 0 0 0 0 127 0" result="hardAlpha"/>
<feOffset dx="2" dy="2"/>
<feGaussianBlur stdDeviation="6"/>
<feComposite in2="hardAlpha" operator="out"/>
<feColorMatrix type="matrix" values="0 0 0 0 0 0 0 0 0 0 0 0 0 0 0 0 0 0 0.15 0"/>
<feBlend mode="normal" in2="effect1_backgroundBlur_3501_114739" result="effect2_dropShadow_3501_114739"/>
<feBlend mode="normal" in="SourceGraphic" in2="effect2_dropShadow_3501_114739" result="shape"/>
</filter>
</defs>
</svg>
