<svg width="32" height="28" viewBox="0 0 32 28" fill="none" xmlns="http://www.w3.org/2000/svg">
<path d="M17.5652 18.8974L20.8583 14.1874M20.8583 14.1874L21.2488 13.6324C21.5002 13.265 21.8494 12.9696 22.2598 12.7769C22.6702 12.5843 23.1268 12.5016 23.5818 12.5375C24.0367 12.5734 24.4733 12.7265 24.8458 12.9809C25.2183 13.2353 25.5131 13.5815 25.6992 13.9834L29.7375 22.295C30.5712 24.008 29.3175 26 27.4088 26H4.59186C2.68786 26 1.43408 24.02 2.25697 22.307L11.2917 3.46683C11.4933 3.02662 11.8244 2.65308 12.2439 2.3924C12.6634 2.13171 13.153 1.99533 13.652 2.00012C14.1511 2.00491 14.6377 2.15066 15.0518 2.41934C15.4658 2.68802 15.7891 3.06784 15.9817 3.51183L20.8583 14.1874Z" stroke="#7C7C7C" stroke-width="1.5" stroke-linecap="round" stroke-linejoin="round"/>
</svg>
