<svg width="101" height="100" viewBox="0 0 101 100" fill="none" xmlns="http://www.w3.org/2000/svg">
<rect x="0.5" width="100" height="100" rx="12" fill="#F9FAFB"/>
<g opacity="0.5" clip-path="url(#clip0_3501_118706)">
<path d="M71.8389 52.0293H67.1987C67.6717 53.3242 67.9301 54.7217 67.9301 56.1782V73.7154C67.9301 74.3226 67.8244 74.9055 67.6321 75.4476H75.3033C78.1689 75.4476 80.5001 73.1163 80.5001 70.2508V60.6905C80.5002 55.9148 76.6148 52.0293 71.8389 52.0293Z" fill="#7C7C7C"/>
<path d="M33.0701 56.1782C33.0701 54.7216 33.3285 53.3242 33.8015 52.0293H29.1613C24.3855 52.0293 20.5 55.9148 20.5 60.6906V70.2509C20.5 73.1164 22.8312 75.4477 25.6968 75.4477H33.3681C33.1758 74.9054 33.0701 74.3226 33.0701 73.7154V56.1782Z" fill="#7C7C7C"/>
<path d="M55.8041 47.5176H45.196C40.4201 47.5176 36.5347 51.4031 36.5347 56.1789V73.7161C36.5347 74.6727 37.3102 75.4483 38.2669 75.4483H62.7332C63.6899 75.4483 64.4654 74.6728 64.4654 73.7161V56.1789C64.4654 51.4031 60.5799 47.5176 55.8041 47.5176Z" fill="#7C7C7C"/>
<path d="M50.5001 24.5508C44.7565 24.5508 40.0837 29.2235 40.0837 34.9672C40.0837 38.8632 42.234 42.2657 45.4096 44.0521C46.9158 44.8994 48.6523 45.3836 50.5001 45.3836C52.3479 45.3836 54.0844 44.8994 55.5906 44.0521C58.7663 42.2657 60.9164 38.863 60.9164 34.9672C60.9164 29.2236 56.2437 24.5508 50.5001 24.5508Z" fill="#7C7C7C"/>
<path d="M32.2092 34.2598C27.9137 34.2598 24.4192 37.7543 24.4192 42.0498C24.4192 46.3453 27.9137 49.8399 32.2092 49.8399C33.2989 49.8399 34.3364 49.6142 35.279 49.2085C36.9086 48.5069 38.2523 47.2649 39.0837 45.7092C39.6673 44.6174 39.9993 43.3718 39.9993 42.0498C39.9993 37.7544 36.5048 34.2598 32.2092 34.2598Z" fill="#7C7C7C"/>
<path d="M68.791 34.2598C64.4955 34.2598 61.001 37.7543 61.001 42.0498C61.001 43.3719 61.333 44.6175 61.9166 45.7092C62.748 47.265 64.0917 48.507 65.7213 49.2085C66.6638 49.6142 67.7014 49.8399 68.791 49.8399C73.0865 49.8399 76.5811 46.3453 76.5811 42.0498C76.5811 37.7543 73.0865 34.2598 68.791 34.2598Z" fill="#7C7C7C"/>
</g>
<defs>
<clipPath id="clip0_3501_118706">
<rect width="60" height="60" fill="white" transform="translate(20.5 20)"/>
</clipPath>
</defs>
</svg>
