<svg width="32" height="33" viewBox="0 0 32 33" fill="none" xmlns="http://www.w3.org/2000/svg">
<rect x="2.5" y="3" width="27" height="27" rx="5.5" stroke="#A53232"/>
<path d="M10.237 23.5216C9.88827 23.5419 9.54535 23.4259 9.28051 23.1983C8.75818 22.6728 8.75818 21.8242 9.28051 21.2988L20.7177 9.86156C21.261 9.35321 22.1134 9.38147 22.6218 9.92473C23.0815 10.416 23.1083 11.1711 22.6845 11.6937L11.1799 23.1983C10.9185 23.4227 10.5811 23.5383 10.237 23.5216Z" fill="#A53232"/>
<path d="M21.661 23.522C21.3076 23.5205 20.9689 23.3803 20.718 23.1314L9.28074 11.6941C8.79684 11.129 8.86263 10.2786 9.42772 9.79464C9.93207 9.36272 10.6759 9.36272 11.1802 9.79464L22.6848 21.2319C23.2279 21.7404 23.256 22.5929 22.7475 23.136C22.7273 23.1576 22.7064 23.1785 22.6848 23.1987C22.4031 23.4437 22.0323 23.5608 21.661 23.522Z" fill="#A53232"/>
</svg>
