<svg width="28" height="28" viewBox="0 0 28 28" fill="none" xmlns="http://www.w3.org/2000/svg">
<path d="M20.8584 8.85843C22.7523 8.85843 24.2876 7.32311 24.2876 5.42921C24.2876 3.53531 22.7523 2 20.8584 2C18.9645 2 17.4292 3.53531 17.4292 5.42921C17.4292 7.32311 18.9645 8.85843 20.8584 8.85843Z" stroke="#7C7C7C" stroke-width="1.5" stroke-linecap="round" stroke-linejoin="round"/>
<path d="M26.0022 17.4308V15.7162C26.0022 12.8753 23.6993 10.5723 20.8584 10.5723C18.9211 10.5723 17.234 11.6432 16.3567 13.2252" stroke="#7C7C7C" stroke-width="1.5" stroke-linecap="round" stroke-linejoin="round"/>
<path d="M7.14162 8.85843C9.03552 8.85843 10.5708 7.32311 10.5708 5.42921C10.5708 3.53531 9.03552 2 7.14162 2C5.24771 2 3.7124 3.53531 3.7124 5.42921C3.7124 7.32311 5.24771 8.85843 7.14162 8.85843Z" stroke="#7C7C7C" stroke-width="1.5" stroke-linecap="round" stroke-linejoin="round"/>
<path d="M1.99756 17.4308V15.7162C1.99756 12.8753 4.30058 10.5723 7.14149 10.5723C9.07871 10.5723 10.7658 11.6432 11.6431 13.2252" stroke="#7C7C7C" stroke-width="1.5" stroke-linecap="round" stroke-linejoin="round"/>
<path d="M14.0017 19.1416C15.8956 19.1416 17.4309 17.6063 17.4309 15.7124C17.4309 13.8185 15.8956 12.2832 14.0017 12.2832C12.1078 12.2832 10.5725 13.8185 10.5725 15.7124C10.5725 17.6063 12.1078 19.1416 14.0017 19.1416Z" stroke="#7C7C7C" stroke-width="1.5" stroke-linecap="round" stroke-linejoin="round"/>
<path d="M19.1462 26.0012C19.1462 23.1603 16.8432 20.8574 14.0023 20.8574C11.1614 20.8574 8.8584 23.1603 8.8584 26.0012" stroke="#7C7C7C" stroke-width="1.5" stroke-linecap="round" stroke-linejoin="round"/>
</svg>
