<svg width="101" height="101" viewBox="0 0 101 101" fill="none" xmlns="http://www.w3.org/2000/svg">
<rect x="0.5" y="0.5" width="100" height="100" rx="12" fill="#F9FAFB"/>
<g opacity="0.5">
<path d="M75.5505 62.5506L67.7255 44.2507C66.3005 40.9007 64.1755 39.0007 61.7505 38.8757C59.3505 38.7507 57.0255 40.4257 55.2505 43.6257L50.5005 52.1506C49.5005 53.9506 48.0755 55.0256 46.5255 55.1506C44.9506 55.3006 43.3756 54.4756 42.1006 52.8506L41.5506 52.1506C39.7756 49.9256 37.5756 48.8506 35.3256 49.0756C33.0756 49.3006 31.1506 50.8506 29.8756 53.3756L25.5506 62.0006C24.0006 65.1256 24.1506 68.7506 25.9756 71.7006C27.8006 74.6506 30.9756 76.4256 34.4506 76.4256H66.3505C69.7005 76.4256 72.8255 74.7506 74.6755 71.9506C76.5755 69.1506 76.8755 65.6256 75.5505 62.5506Z" fill="#7C7C7C"/>
<path d="M37.9246 41.4508C42.5914 41.4508 46.3745 37.6676 46.3745 33.0008C46.3745 28.334 42.5914 24.5508 37.9246 24.5508C33.2578 24.5508 29.4746 28.334 29.4746 33.0008C29.4746 37.6676 33.2578 41.4508 37.9246 41.4508Z" fill="#7C7C7C"/>
</g>
</svg>
