<svg width="24" height="24" viewBox="0 0 24 24" fill="none" xmlns="http://www.w3.org/2000/svg">
<path d="M6.50391 14.7637H17.4657V22.1581H6.50391V14.7637Z" stroke="#316070" stroke-width="1.5" stroke-linecap="round" stroke-linejoin="round"/>
<path d="M8.97559 10.5234H14.9109" stroke="#316070" stroke-width="1.5" stroke-linecap="round" stroke-linejoin="round"/>
<path d="M10.3379 19.3925C10.3379 18.4756 11.0754 17.7324 11.9851 17.7324C12.8949 17.7324 13.6323 18.4756 13.6323 19.3925V22.1575H10.3379V19.3925Z" stroke="#316070" stroke-width="1.5" stroke-linecap="round" stroke-linejoin="round"/>
<path d="M8.97366 14.7636L8.97363 10.5082L11.9479 5.89648L14.9222 10.5082L14.9222 14.7636" stroke="#316070" stroke-width="1.5" stroke-linecap="round" stroke-linejoin="round"/>
<path d="M2 11.674V22.1592H6.50374V11.674L4.25187 8.22266L2 11.674Z" stroke="#316070" stroke-width="1.5" stroke-linecap="round" stroke-linejoin="round"/>
<path d="M17.4658 11.674V22.1592H21.9695V11.674L19.7177 8.22266L17.4658 11.674Z" stroke="#316070" stroke-width="1.5" stroke-linecap="round" stroke-linejoin="round"/>
<path d="M11.9484 5.89684L11.9482 2L13.896 2" stroke="#316070" stroke-width="1.5" stroke-linecap="round" stroke-linejoin="round"/>
</svg>
