<svg width="44" height="44" viewBox="0 0 44 44" fill="none" xmlns="http://www.w3.org/2000/svg">
<rect x="0.25" y="0.25" width="43.5" height="43.5" rx="21.75" stroke="#316070" stroke-width="0.5" stroke-dasharray="4 4"/>
<path fill-rule="evenodd" clip-rule="evenodd" d="M20.912 29.0824C20.912 29.6976 21.4105 30.1962 22.0258 30.1962C22.6411 30.1962 23.1396 29.6976 23.1396 29.0824V23.1397H29.0833C29.6986 23.1397 30.1971 22.6412 30.1971 22.0259C30.1971 21.4106 29.6986 20.9121 29.0833 20.9121H23.1396V14.9165C23.1396 14.3013 22.6411 13.8027 22.0258 13.8027C21.4105 13.8027 20.912 14.3013 20.912 14.9165V20.9121H14.9175C14.3023 20.9121 13.8037 21.4106 13.8037 22.0259C13.8037 22.6412 14.3023 23.1397 14.9175 23.1397H20.912V29.0824Z" fill="#316070"/>
</svg>
