<svg width="24" height="24" viewBox="0 0 24 24" fill="none" xmlns="http://www.w3.org/2000/svg">
<path d="M17.9913 19.46C17.8389 19.4605 17.6901 19.4145 17.5645 19.3283C17.4389 19.242 17.3426 19.1196 17.2883 18.9773C17.234 18.8349 17.2243 18.6794 17.2606 18.5315C17.2969 18.3835 17.3773 18.2501 17.4913 18.149C18.7381 17.0365 19.6176 15.5715 20.0132 13.948C20.4087 12.3245 20.3017 10.6191 19.7063 9.05782C19.1109 7.49649 18.0552 6.1529 16.6791 5.20503C15.3029 4.25716 13.6713 3.74974 12.0003 3.75C11.3366 3.75058 10.6752 3.82776 10.0293 3.98C9.83567 4.02496 9.63213 3.99116 9.46344 3.88604C9.29475 3.78093 9.17473 3.61311 9.12977 3.4195C9.08482 3.22589 9.11862 3.02236 9.22373 2.85367C9.32885 2.68498 9.49667 2.56496 9.69027 2.52C10.4472 2.34098 11.2224 2.25038 12.0003 2.25C13.9759 2.24892 15.9053 2.84836 17.5325 3.96885C19.1596 5.08934 20.4078 6.67795 21.1115 8.52405C21.8152 10.3701 21.9412 12.3865 21.4727 14.3058C21.0042 16.2251 19.9634 17.9567 18.4883 19.271C18.3514 19.3928 18.1745 19.4601 17.9913 19.46Z" fill="#316070"/>
<path d="M12.0005 21.7498C9.991 21.7505 8.03043 21.1301 6.38722 19.9734C4.744 18.8168 3.49849 17.1805 2.82121 15.2886C2.14394 13.3967 2.06802 11.3417 2.60386 9.40496C3.13969 7.46825 4.26108 5.74451 5.81447 4.46978C6.37551 3.99919 6.9917 3.59858 7.64947 3.27678C7.82784 3.18998 8.03333 3.17739 8.22097 3.24174C8.4086 3.3061 8.5631 3.44217 8.65064 3.62017C8.73819 3.79817 8.75165 4.0036 8.68809 4.19151C8.62452 4.37941 8.4891 4.53448 8.31147 4.62278C7.76023 4.89265 7.24379 5.22844 6.77347 5.62278C5.32658 6.80981 4.32598 8.45327 3.93576 10.2836C3.54554 12.114 3.78887 14.0227 4.62583 15.6966C5.4628 17.3705 6.84372 18.7104 8.54215 19.4964C10.2406 20.2825 12.1557 20.4681 13.9735 20.0228C14.5645 19.8719 15.1375 19.6577 15.6825 19.3838C15.8597 19.2945 16.065 19.279 16.2536 19.3409C16.4422 19.4027 16.5985 19.5367 16.6885 19.7135C16.7785 19.8904 16.7946 20.0957 16.7335 20.2845C16.6724 20.4733 16.539 20.6302 16.3625 20.7208C15.7145 21.047 15.0328 21.3012 14.3295 21.4788C13.5663 21.6592 12.7847 21.7502 12.0005 21.7498Z" fill="#316070"/>
<path d="M14.3714 13.0289C14.2167 13.0293 14.0656 12.9817 13.9389 12.8927C13.8122 12.8038 13.7162 12.6778 13.664 12.5321C13.6117 12.3865 13.6058 12.2282 13.6471 12.079C13.6883 11.9298 13.7747 11.7971 13.8944 11.6989C14.4254 11.2689 14.7938 10.6705 14.9384 10.0027C15.0831 9.33491 14.9955 8.63772 14.69 8.02649C14.3846 7.41526 13.8797 6.92661 13.2587 6.64138C12.6378 6.35616 11.9381 6.29144 11.2754 6.45795C11.0819 6.50449 10.8779 6.47227 10.7082 6.36838C10.5385 6.26448 10.417 6.09742 10.3704 5.90395C10.3239 5.71047 10.3561 5.50643 10.46 5.33671C10.5639 5.16699 10.7309 5.04549 10.9244 4.99895C11.917 4.75332 12.9637 4.85308 13.8921 5.28181C14.8204 5.71054 15.5751 6.44267 16.0317 7.3576C16.4884 8.27253 16.6198 9.31571 16.4044 10.3153C16.1889 11.3149 15.6394 12.2114 14.8464 12.8569C14.713 12.9679 14.545 13.0288 14.3714 13.0289Z" fill="#316070"/>
<path d="M12 13.8698C11.7316 13.8709 11.4637 13.8461 11.2 13.7958L11.145 13.7888C10.6201 13.6918 10.1185 13.4956 9.66704 13.2108C9.00367 12.8161 8.45482 12.255 8.07477 11.5831C7.69471 10.9112 7.49661 10.1517 7.50004 9.37981C7.50004 9.23881 7.51104 9.08681 7.52304 8.94581C7.62007 7.89885 8.08282 6.91954 8.83004 6.17981C8.97222 6.04733 9.16027 5.9752 9.35457 5.97863C9.54887 5.98206 9.73425 6.06077 9.87167 6.19819C10.0091 6.3356 10.0878 6.52098 10.0912 6.71528C10.0946 6.90959 10.0225 7.09763 9.89004 7.23981C9.39337 7.73065 9.08416 8.37985 9.01604 9.07481C9.00904 9.17281 9.00004 9.27981 9.00004 9.37981C8.99712 9.89271 9.12816 10.3975 9.38019 10.8442C9.63223 11.2909 9.99652 11.6641 10.437 11.9268C10.7161 12.1053 11.025 12.232 11.349 12.3008C11.383 12.3008 11.417 12.3098 11.449 12.3168C11.7654 12.382 12.0908 12.3901 12.41 12.3408C12.606 12.3066 12.8076 12.3516 12.9704 12.466C13.1332 12.5804 13.2438 12.7548 13.278 12.9508C13.3123 13.1468 13.2672 13.3484 13.1528 13.5111C13.0384 13.6739 12.864 13.7846 12.668 13.8188C12.4472 13.8546 12.2238 13.8717 12 13.8698Z" fill="#316070"/>
<path d="M17.0007 22.7494C16.8613 22.7494 16.7247 22.7105 16.6062 22.6372C16.4877 22.5639 16.3919 22.459 16.3297 22.3344L6.32965 2.33436C6.28475 2.24615 6.25776 2.14992 6.25022 2.05122C6.24269 1.95253 6.25477 1.85332 6.28576 1.75931C6.31675 1.66531 6.36604 1.57837 6.43079 1.5035C6.49555 1.42864 6.57448 1.36733 6.66304 1.32312C6.7516 1.27891 6.84803 1.25266 6.94678 1.24589C7.04553 1.23913 7.14464 1.25198 7.23841 1.2837C7.33217 1.31542 7.41872 1.36539 7.49308 1.43072C7.56744 1.49605 7.62813 1.57546 7.67165 1.66436L17.6717 21.6644C17.7605 21.8423 17.775 22.0483 17.712 22.2369C17.649 22.4256 17.5136 22.5815 17.3357 22.6704C17.2317 22.7226 17.117 22.7496 17.0007 22.7494Z" fill="#316070"/>
<path d="M17.9907 19.4599C17.7977 19.4599 17.6122 19.3854 17.4727 19.2521C17.3332 19.1187 17.2504 18.9367 17.2417 18.7439C17.2021 17.9035 16.9593 17.0852 16.5342 16.3591C16.109 15.633 15.5142 15.0208 14.8007 14.5749C14.6323 14.4689 14.5129 14.3002 14.4688 14.1061C14.4248 13.912 14.4596 13.7084 14.5657 13.5399C14.6718 13.3715 14.8404 13.2522 15.0345 13.2081C15.2286 13.164 15.4323 13.1989 15.6007 13.3049C16.5194 13.8795 17.285 14.6684 17.8319 15.6039C18.3788 16.5393 18.6906 17.5935 18.7407 18.6759C18.7452 18.7743 18.7304 18.8726 18.6969 18.9653C18.6634 19.0579 18.612 19.143 18.5456 19.2157C18.4792 19.2885 18.3991 19.3474 18.3099 19.3891C18.2206 19.4308 18.1241 19.4546 18.0257 19.4589L17.9907 19.4599Z" fill="#316070"/>
<path d="M6.0105 19.4593H5.9765C5.77788 19.4502 5.59099 19.3627 5.45691 19.2158C5.32283 19.069 5.25255 18.8749 5.2615 18.6763C5.32707 17.2606 5.83734 15.9017 6.71974 14.7927C7.60214 13.6837 8.81174 12.8812 10.1765 12.4993C10.4966 12.4083 10.8237 12.3444 11.1545 12.3083C11.1797 12.3042 11.205 12.3015 11.2305 12.3003C11.6833 12.2282 12.1442 12.2232 12.5985 12.2853C12.6948 12.2858 12.79 12.3057 12.8785 12.3438C12.9669 12.382 13.0467 12.4376 13.1131 12.5074C13.1795 12.5771 13.2312 12.6596 13.2649 12.7498C13.2986 12.84 13.3138 12.9361 13.3095 13.0323C13.3007 13.235 13.2135 13.4263 13.0663 13.5659C12.919 13.7054 12.7234 13.7823 12.5205 13.7803C12.1556 13.7264 11.7845 13.7294 11.4205 13.7893C11.3851 13.7952 11.3494 13.7985 11.3135 13.7993C11.0663 13.827 10.8218 13.8752 10.5825 13.9433C9.52198 14.2403 8.582 14.864 7.89608 15.7256C7.21016 16.5873 6.81317 17.6432 6.7615 18.7433C6.75274 18.9364 6.66973 19.1187 6.52981 19.2521C6.38988 19.3856 6.20384 19.4598 6.0105 19.4593Z" fill="#316070"/>
</svg>
