<svg width="24" height="24" viewBox="0 0 24 24" fill="none" xmlns="http://www.w3.org/2000/svg">
<path fill-rule="evenodd" clip-rule="evenodd" d="M2 10.1393C2 7.69898 3.97828 5.7207 6.4186 5.7207H17.5814C20.0218 5.7207 22 7.69898 22 10.1393V17.5812C22 20.0215 20.0218 21.9998 17.5814 21.9998H6.4186C3.97828 21.9998 2 20.0215 2 17.5812V10.1393ZM6.4186 7.11605C4.7489 7.11605 3.39535 8.46961 3.39535 10.1393V17.5812C3.39535 19.2508 4.7489 20.6044 6.4186 20.6044H17.5814C19.2511 20.6044 20.6047 19.2508 20.6047 17.5812V10.1393C20.6047 8.46961 19.2511 7.11605 17.5814 7.11605H6.4186Z" fill="#316070" stroke="#316070" stroke-width="0.4"/>
<path fill-rule="evenodd" clip-rule="evenodd" d="M11.0694 3.39535C9.91348 3.39535 8.9764 4.33243 8.9764 5.48837V6.4186C8.9764 6.80392 8.66404 7.11628 8.27873 7.11628C7.89342 7.11628 7.58105 6.80392 7.58105 6.4186V5.48837C7.58105 3.5618 9.14285 2 11.0694 2H12.9299C14.8565 2 16.4183 3.5618 16.4183 5.48837V6.4186C16.4183 6.80392 16.1059 7.11628 15.7206 7.11628C15.3353 7.11628 15.0229 6.80392 15.0229 6.4186V5.48837C15.0229 4.33243 14.0858 3.39535 12.9299 3.39535H11.0694Z" fill="#316070" stroke="#316070" stroke-width="0.4"/>
<path fill-rule="evenodd" clip-rule="evenodd" d="M2.1143 10.688C2.32569 10.3659 2.75815 10.2761 3.08028 10.4875L3.08314 10.4893L3.094 10.4964L3.13928 10.5256C3.17972 10.5517 3.2403 10.5903 3.31914 10.6397C3.47687 10.7387 3.7075 10.881 3.99605 11.0521C4.57377 11.3946 5.38049 11.851 6.29698 12.3065C8.16633 13.2357 10.362 14.0941 11.9999 14.0941C13.6378 14.0941 15.8335 13.2357 17.7028 12.3065C18.6193 11.851 19.426 11.3946 20.0037 11.0521C20.2923 10.881 20.5229 10.7387 20.6806 10.6397C20.7595 10.5903 20.8201 10.5517 20.8605 10.5256L20.9058 10.4964L20.9166 10.4893L20.9191 10.4877C21.2412 10.2764 21.6741 10.3659 21.8855 10.688C22.0969 11.0102 22.0072 11.4426 21.685 11.6541L21.3022 11.0708C21.685 11.6541 21.6851 11.654 21.685 11.6541L21.6795 11.6577L21.6659 11.6665L21.6148 11.6996C21.5704 11.728 21.5057 11.7693 21.4224 11.8216C21.2559 11.9262 21.0152 12.0745 20.7154 12.2523C20.1166 12.6074 19.2789 13.0813 18.3239 13.556C16.4503 14.4873 13.9948 15.4894 11.9999 15.4894C10.005 15.4894 7.54951 14.4873 5.67591 13.556C4.72091 13.0813 3.8832 12.6074 3.28435 12.2523C2.98461 12.0745 2.74393 11.9262 2.57742 11.8216C2.49415 11.7693 2.42937 11.728 2.38498 11.6996L2.33389 11.6665L2.32025 11.6577L2.31536 11.6544C2.31524 11.6544 2.31477 11.6541 2.69757 11.0708L2.31536 11.6544C1.99323 11.4431 1.90288 11.0102 2.1143 10.688Z" fill="#316070"/>
<path d="M21.685 11.6541C22.0072 11.4426 22.0969 11.0102 21.8855 10.688C21.6741 10.3659 21.2412 10.2764 20.9191 10.4877L20.9166 10.4893L20.9058 10.4964L20.8605 10.5256C20.8201 10.5517 20.7595 10.5903 20.6806 10.6397C20.5229 10.7387 20.2923 10.881 20.0037 11.0521C19.426 11.3946 18.6193 11.851 17.7028 12.3065C15.8335 13.2357 13.6378 14.0941 11.9999 14.0941C10.362 14.0941 8.16633 13.2357 6.29698 12.3065C5.38049 11.851 4.57377 11.3946 3.99605 11.0521C3.7075 10.881 3.47687 10.7387 3.31914 10.6397C3.2403 10.5903 3.17972 10.5517 3.13928 10.5256L3.094 10.4964L3.08314 10.4893L3.08028 10.4875C2.75815 10.2761 2.32569 10.3659 2.1143 10.688C1.90288 11.0102 1.99323 11.4431 2.31536 11.6544M21.685 11.6541L21.3022 11.0708C21.685 11.6541 21.6851 11.654 21.685 11.6541ZM21.685 11.6541L21.6795 11.6577L21.6659 11.6665L21.6148 11.6996C21.5704 11.728 21.5057 11.7693 21.4224 11.8216C21.2559 11.9262 21.0152 12.0745 20.7154 12.2523C20.1166 12.6074 19.2789 13.0813 18.3239 13.556C16.4503 14.4873 13.9948 15.4894 11.9999 15.4894C10.005 15.4894 7.54951 14.4873 5.67591 13.556C4.72091 13.0813 3.8832 12.6074 3.28435 12.2523C2.98461 12.0745 2.74393 11.9262 2.57742 11.8216C2.49415 11.7693 2.42937 11.728 2.38498 11.6996L2.33389 11.6665L2.32025 11.6577L2.31536 11.6544M2.31536 11.6544C2.31524 11.6544 2.31477 11.6541 2.69757 11.0708L2.31536 11.6544Z" stroke="#316070" stroke-width="0.4"/>
<path d="M13.8606 14.7902C13.8606 15.8177 13.0276 16.6506 12.0001 16.6506C10.9726 16.6506 10.1396 15.8177 10.1396 14.7902C10.1396 13.7626 10.9726 12.9297 12.0001 12.9297C13.0276 12.9297 13.8606 13.7626 13.8606 14.7902Z" fill="#316070" stroke="#316070" stroke-width="0.4"/>
</svg>
