<svg width="28" height="28" viewBox="0 0 28 28" fill="none" xmlns="http://www.w3.org/2000/svg">
<path d="M15.12 26H12.88C12.123 26 11.484 25.433 11.394 24.68L11.155 22.804C10.678 22.649 10.218 22.458 9.781 22.235L8.287 23.396C7.681 23.865 6.828 23.811 6.302 23.27L4.727 21.695C4.19 21.174 4.136 20.321 4.605 19.716L5.766 18.221C5.542 17.784 5.351 17.324 5.197 16.847L3.317 16.608C2.567 16.516 2 15.877 2 15.12V12.88C2 12.123 2.567 11.484 3.32 11.394L5.196 11.155C5.351 10.678 5.542 10.218 5.765 9.781L4.605 8.287C4.135 7.681 4.19 6.827 4.732 6.301L6.307 4.726C6.828 4.189 7.682 4.136 8.286 4.604L9.78 5.766C10.217 5.543 10.677 5.352 11.155 5.197L11.394 3.317C11.484 2.567 12.123 2 12.88 2H15.12C15.877 2 16.516 2.567 16.606 3.32L16.845 5.196C17.323 5.351 17.783 5.542 18.22 5.765L19.714 4.604C20.321 4.135 21.173 4.189 21.699 4.731L23.274 6.306C23.811 6.827 23.865 7.68 23.396 8.285L22.235 9.78C22.459 10.217 22.65 10.677 22.804 11.154L24.684 11.393C25.433 11.484 26 12.123 26 12.88V15.12C26 15.877 25.433 16.516 24.68 16.606L22.804 16.845C22.649 17.322 22.458 17.782 22.235 18.219L23.396 19.713C23.866 20.319 23.811 21.172 23.269 21.698L21.694 23.273C21.173 23.81 20.319 23.865 19.715 23.395L18.22 22.234C17.783 22.458 17.323 22.649 16.846 22.803L16.607 24.683C16.516 25.433 15.877 26 15.12 26ZM9.73 21.14C9.813 21.14 9.898 21.161 9.974 21.203C10.525 21.511 11.122 21.759 11.748 21.939C11.94 21.994 12.081 22.158 12.106 22.356L12.386 24.556C12.416 24.807 12.633 25 12.88 25H15.12C15.367 25 15.584 24.807 15.613 24.561L15.894 22.357C15.919 22.159 16.06 21.995 16.252 21.94C16.878 21.76 17.475 21.512 18.026 21.204C18.201 21.106 18.419 21.123 18.576 21.246L20.326 22.606C20.527 22.762 20.809 22.749 20.981 22.572L22.566 20.987C22.747 20.811 22.761 20.529 22.605 20.327L21.245 18.577C21.122 18.419 21.105 18.202 21.203 18.027C21.511 17.476 21.759 16.879 21.939 16.253C21.994 16.061 22.158 15.92 22.356 15.895L24.556 15.615C24.807 15.584 25 15.367 25 15.12V12.88C25 12.633 24.807 12.416 24.561 12.387L22.357 12.106C22.159 12.081 21.995 11.94 21.94 11.748C21.76 11.122 21.512 10.525 21.204 9.974C21.106 9.799 21.122 9.582 21.246 9.424L22.606 7.674C22.763 7.472 22.749 7.19 22.573 7.02L20.988 5.435C20.813 5.253 20.53 5.239 20.328 5.396L18.578 6.756C18.419 6.879 18.202 6.896 18.027 6.798C17.478 6.49 16.881 6.243 16.253 6.062C16.061 6.007 15.92 5.843 15.895 5.645L15.615 3.445C15.584 3.193 15.367 3 15.12 3H12.88C12.633 3 12.416 3.193 12.387 3.439L12.106 5.643C12.081 5.841 11.94 6.005 11.748 6.061C11.12 6.241 10.523 6.489 9.974 6.796C9.799 6.895 9.582 6.877 9.423 6.755L7.673 5.395C7.471 5.238 7.19 5.252 7.019 5.428L5.434 7.014C5.253 7.19 5.239 7.472 5.395 7.674L6.755 9.424C6.878 9.582 6.895 9.799 6.797 9.974C6.488 10.525 6.241 11.122 6.061 11.748C6.006 11.94 5.842 12.081 5.644 12.106L3.444 12.386C3.193 12.416 3 12.633 3 12.88V15.12C3 15.367 3.193 15.584 3.439 15.613L5.643 15.894C5.841 15.919 6.005 16.06 6.06 16.252C6.24 16.878 6.488 17.475 6.796 18.026C6.894 18.201 6.878 18.418 6.754 18.576L5.394 20.326C5.237 20.528 5.251 20.81 5.427 20.98L7.012 22.565C7.187 22.746 7.468 22.76 7.672 22.604L9.422 21.244C9.513 21.176 9.621 21.14 9.73 21.14Z" fill="#7C7C7C" stroke="#7C7C7C" stroke-width="0.4"/>
<path d="M14 19C11.243 19 9 16.757 9 14C9 11.243 11.243 9 14 9C16.757 9 19 11.243 19 14C19 16.757 16.757 19 14 19ZM14 10C11.794 10 10 11.794 10 14C10 16.206 11.794 18 14 18C16.206 18 18 16.206 18 14C18 11.794 16.206 10 14 10Z" fill="#7C7C7C" stroke="#7C7C7C" stroke-width="0.4"/>
</svg>
