<svg width="28" height="28" viewBox="0 0 28 28" fill="none" xmlns="http://www.w3.org/2000/svg">
<path d="M23.6527 21.9768L19.8081 18.133C20.9733 16.608 21.6123 14.7583 21.6126 12.8064C21.6126 10.4542 20.6963 8.2426 19.0324 6.57936C17.3688 4.91611 15.157 4 12.804 4C10.4513 4 8.23929 4.91611 6.5757 6.57936C3.14143 10.0132 3.14143 15.6002 6.5757 19.0334C8.23929 20.697 10.4513 21.6131 12.804 21.6131C14.7563 21.6128 16.6065 20.9739 18.1318 19.809L21.9764 23.6528C22.2076 23.8843 22.5112 24 22.8145 24C23.1178 24 23.4214 23.8843 23.6527 23.6528C24.1158 23.1901 24.1158 22.4395 23.6527 21.9768ZM8.25203 17.3574C5.74217 14.8481 5.74246 10.765 8.25203 8.25533C9.46789 7.04002 11.0846 6.37044 12.804 6.37044C14.5238 6.37044 16.1402 7.04002 17.3561 8.25533C18.5719 9.47093 19.2416 11.0873 19.2416 12.8064C19.2416 14.5258 18.5719 16.1418 17.3561 17.3574C16.1402 18.573 14.5238 19.2426 12.804 19.2426C11.0846 19.2426 9.46789 18.573 8.25203 17.3574Z" fill="#333333"/>
</svg>
