<svg width="156" height="170" viewBox="0 0 156 170" fill="none" xmlns="http://www.w3.org/2000/svg">
<path d="M56.5001 0.0018628L61.5317 7.05047L52.9116 7.88367L56.5001 0.0018628ZM99.5001 170L95.1344 162.521L103.795 162.479L99.5001 170ZM57.8946 6.63401C60.5161 31.7405 64.3919 46.7484 68.7232 56.9594C73.05 67.16 77.8372 72.6005 82.4199 78.6391C87.0238 84.7056 91.3492 91.2965 94.5808 103.684C97.8035 116.037 99.9348 134.138 100.218 163.229L98.718 163.243C98.4353 134.201 96.3066 116.242 93.1294 104.063C89.9611 91.9181 85.7467 85.5041 81.225 79.5459C76.6821 73.5598 71.7581 67.9558 67.3422 57.5452C62.9308 47.145 59.0325 31.975 56.4027 6.78978L57.8946 6.63401Z" fill="white"/>
</svg>
