<svg width="36" height="36" viewBox="0 0 36 36" fill="none" xmlns="http://www.w3.org/2000/svg">
<path d="M11.2646 29.7026C13.2469 30.8459 15.5468 31.4999 17.9995 31.4999C25.4553 31.4999 31.5 25.4558 31.5 18C31.5 10.5442 25.4558 4.5 18 4.5C10.5442 4.5 4.5 10.5442 4.5 18C4.5 20.4527 5.15407 22.7526 6.29729 24.7348L6.30172 24.7425C6.41172 24.9332 6.46719 25.0294 6.49231 25.1203C6.51601 25.206 6.52263 25.2831 6.51656 25.3718C6.51004 25.4672 6.4779 25.566 6.41202 25.7637L5.25879 29.2234L5.25734 29.2279C5.01402 29.9579 4.89236 30.3229 4.97908 30.5661C5.05469 30.7781 5.22253 30.9455 5.43457 31.0211C5.67722 31.1076 6.04057 30.9865 6.76732 30.7442L6.77637 30.7409L10.2361 29.5876C10.4331 29.522 10.5332 29.4887 10.6284 29.4822C10.7171 29.4761 10.7937 29.4841 10.8794 29.5078C10.9705 29.533 11.0668 29.5885 11.2585 29.6991L11.2646 29.7026Z" stroke="#316070" stroke-width="1.8"/>
</svg>
