<svg width="28" height="28" viewBox="0 0 28 28" fill="none" xmlns="http://www.w3.org/2000/svg">
<path d="M20.99 22.7033C20.8123 22.7039 20.6386 22.6503 20.4921 22.5497C20.3456 22.449 20.2332 22.3062 20.1698 22.1401C20.1065 21.9741 20.0952 21.7927 20.1375 21.6201C20.1798 21.4474 20.2737 21.2918 20.4066 21.1738C21.8613 19.876 22.8874 18.1668 23.3489 16.2727C23.8104 14.3786 23.6855 12.389 22.9909 10.5675C22.2962 8.74591 21.0646 7.17838 19.4591 6.07253C17.8536 4.96669 15.95 4.3747 14.0005 4.375C13.2262 4.37568 12.4546 4.46572 11.701 4.64333C11.4751 4.69578 11.2376 4.65635 11.0408 4.53372C10.844 4.41108 10.704 4.21529 10.6516 3.98942C10.5991 3.76354 10.6385 3.52608 10.7612 3.32928C10.8838 3.13248 11.0796 2.99245 11.3055 2.94C12.1886 2.73114 13.093 2.62544 14.0005 2.625C16.3054 2.62374 18.5563 3.32309 20.4547 4.63033C22.3531 5.93756 23.8093 7.79094 24.6303 9.94472C25.4512 12.0985 25.5982 14.4509 25.0516 16.6901C24.505 18.9293 23.2908 20.9495 21.5698 22.4828C21.4101 22.625 21.2038 22.7034 20.99 22.7033Z" fill="#7C7C7C"/>
<path d="M13.9994 25.3764C11.655 25.3772 9.3677 24.6534 7.45061 23.3039C5.53353 21.9545 4.08043 20.0455 3.29028 17.8383C2.50013 15.6311 2.41156 13.2336 3.0367 10.9741C3.66184 8.71459 4.97012 6.70356 6.78241 5.21637C7.43696 4.66734 8.15585 4.19997 8.92325 3.82453C9.13134 3.72327 9.37108 3.70858 9.58999 3.78366C9.80889 3.85874 9.98914 4.01749 10.0913 4.22516C10.1934 4.43283 10.2091 4.6725 10.135 4.89172C10.0608 5.11094 9.90282 5.29186 9.69558 5.39487C9.05246 5.70972 8.44995 6.10147 7.90125 6.56153C6.2132 7.9464 5.04584 9.86377 4.59058 11.9992C4.13533 14.1346 4.41921 16.3614 5.39566 18.3143C6.37212 20.2672 7.9832 21.8304 9.96471 22.7475C11.9462 23.6645 14.1805 23.881 16.3012 23.3615C16.9907 23.1855 17.6592 22.9356 18.2951 22.616C18.5018 22.5119 18.7414 22.4938 18.9614 22.5659C19.1814 22.6381 19.3638 22.7944 19.4688 23.0008C19.5737 23.2071 19.5926 23.4466 19.5213 23.6669C19.45 23.8871 19.2944 24.0702 19.0884 24.1759C18.3325 24.5564 17.5371 24.853 16.7166 25.0602C15.8262 25.2707 14.9143 25.3768 13.9994 25.3764Z" fill="#7C7C7C"/>
<path d="M16.7663 15.2017C16.5858 15.2021 16.4095 15.1466 16.2617 15.0428C16.114 14.939 16.0019 14.7921 15.941 14.6221C15.88 14.4522 15.8731 14.2675 15.9213 14.0935C15.9694 13.9194 16.0702 13.7646 16.2098 13.6501C16.8294 13.1484 17.2591 12.4502 17.4279 11.6711C17.5966 10.892 17.4944 10.0786 17.1381 9.36554C16.7817 8.65244 16.1926 8.08235 15.4682 7.74958C14.7438 7.41682 13.9275 7.34132 13.1543 7.53557C12.9286 7.58988 12.6906 7.55229 12.4926 7.43108C12.2946 7.30986 12.1528 7.11496 12.0985 6.88924C12.0442 6.66352 12.0818 6.42547 12.203 6.22746C12.3242 6.02946 12.5191 5.88771 12.7448 5.83341C13.9029 5.54684 15.124 5.66323 16.2071 6.16342C17.2902 6.6636 18.1706 7.51774 18.7034 8.58517C19.2361 9.65259 19.3894 10.8696 19.1381 12.0358C18.8867 13.2021 18.2457 14.2479 17.3205 15.0011C17.1648 15.1305 16.9688 15.2015 16.7663 15.2017Z" fill="#7C7C7C"/>
<path d="M14.0001 16.1831C13.6869 16.1844 13.3743 16.1555 13.0667 16.0967L13.0026 16.0886C12.3901 15.9754 11.8049 15.7466 11.2782 15.4142C10.5043 14.9537 9.86396 14.2991 9.42056 13.5152C8.97716 12.7314 8.74604 11.8453 8.75005 10.9447C8.75005 10.7802 8.76288 10.6029 8.77688 10.4384C8.89009 9.21695 9.42996 8.07442 10.3017 7.2114C10.4676 7.05684 10.687 6.9727 10.9137 6.9767C11.1403 6.9807 11.3566 7.07253 11.5169 7.23284C11.6773 7.39316 11.7691 7.60944 11.7731 7.83613C11.7771 8.06281 11.6929 8.2822 11.5384 8.44807C10.9589 9.02072 10.5982 9.77812 10.5187 10.5889C10.5106 10.7032 10.5001 10.8281 10.5001 10.9447C10.4966 11.5431 10.6495 12.132 10.9436 12.6532C11.2376 13.1744 11.6626 13.6097 12.1766 13.9162C12.5021 14.1245 12.8625 14.2723 13.2406 14.3526C13.2802 14.3526 13.3199 14.3631 13.3572 14.3712C13.7263 14.4473 14.106 14.4568 14.4784 14.3992C14.707 14.3593 14.9422 14.4119 15.1321 14.5453C15.322 14.6788 15.4511 14.8822 15.4911 15.1109C15.531 15.3396 15.4784 15.5747 15.3449 15.7646C15.2115 15.9545 15.008 16.0837 14.7794 16.1236C14.5218 16.1654 14.261 16.1853 14.0001 16.1831Z" fill="#7C7C7C"/>
<path d="M19.8318 26.5425C19.6692 26.5425 19.5099 26.4972 19.3716 26.4117C19.2333 26.3262 19.1216 26.2038 19.049 26.0584L7.38231 2.72504C7.32993 2.62213 7.29844 2.50987 7.28965 2.39472C7.28086 2.27958 7.29495 2.16383 7.33111 2.05416C7.36726 1.94449 7.42477 1.84306 7.50032 1.75571C7.57586 1.66837 7.66795 1.59685 7.77126 1.54527C7.87458 1.49369 7.98709 1.46307 8.1023 1.45517C8.21751 1.44728 8.33314 1.46227 8.44253 1.49928C8.55192 1.53628 8.6529 1.59458 8.73965 1.6708C8.8264 1.74702 8.8972 1.83966 8.94798 1.94338L20.6146 25.2767C20.7183 25.4843 20.7352 25.7246 20.6617 25.9447C20.5882 26.1648 20.4303 26.3467 20.2226 26.4504C20.1014 26.5113 19.9675 26.5429 19.8318 26.5425Z" fill="#7C7C7C"/>
<path d="M20.988 22.7042C20.7628 22.7042 20.5464 22.6173 20.3836 22.4617C20.2209 22.3062 20.1244 22.0938 20.1142 21.8689C20.0679 20.8884 19.7847 19.9337 19.2887 19.0866C18.7927 18.2395 18.0988 17.5252 17.2663 17.0051C17.0698 16.8813 16.9306 16.6846 16.8792 16.4581C16.8277 16.2317 16.8684 15.9941 16.9922 15.7976C17.1159 15.6011 17.3127 15.4618 17.5391 15.4104C17.7656 15.359 18.0032 15.3996 18.1997 15.5234C19.2715 16.1938 20.1647 17.1141 20.8027 18.2055C21.4408 19.2969 21.8046 20.5267 21.863 21.7896C21.8683 21.9044 21.851 22.0191 21.8119 22.1271C21.7728 22.2352 21.7129 22.3345 21.6354 22.4193C21.5579 22.5042 21.4644 22.5729 21.3604 22.6216C21.2563 22.6703 21.1436 22.698 21.0288 22.7031L20.988 22.7042Z" fill="#7C7C7C"/>
<path d="M7.01144 22.7051H6.97177C6.74004 22.6945 6.522 22.5924 6.36558 22.4211C6.20916 22.2498 6.12716 22.0234 6.13761 21.7916C6.2141 20.14 6.80941 18.5546 7.83888 17.2608C8.86835 15.967 10.2795 15.0307 11.8718 14.5851C12.2452 14.479 12.6269 14.4044 13.0128 14.3623C13.0421 14.3575 13.0717 14.3543 13.1014 14.353C13.6297 14.2689 14.1675 14.263 14.6974 14.3355C14.8098 14.336 14.9209 14.3592 15.0241 14.4037C15.1273 14.4482 15.2204 14.5131 15.2978 14.5945C15.3753 14.6759 15.4355 14.7721 15.4749 14.8774C15.5143 14.9826 15.532 15.0947 15.5269 15.207C15.5167 15.4434 15.4149 15.6666 15.2432 15.8294C15.0714 15.9923 14.8431 16.082 14.6064 16.0796C14.1807 16.0167 13.7478 16.0202 13.3231 16.0901C13.2818 16.097 13.2401 16.1009 13.1983 16.1018C12.9098 16.1341 12.6246 16.1903 12.3454 16.2698C11.1082 16.6163 10.0115 17.3439 9.21128 18.3492C8.41104 19.3545 7.94789 20.5863 7.88761 21.8698C7.87738 22.0951 7.78054 22.3078 7.61729 22.4634C7.45404 22.6191 7.237 22.7057 7.01144 22.7051Z" fill="#7C7C7C"/>
</svg>
