<svg width="32" height="32" viewBox="0 0 32 32" fill="none" xmlns="http://www.w3.org/2000/svg">
<rect width="32" height="32" rx="16" fill="#F9F9F9"/>
<g clip-path="url(#clip0_3033_69869)">
<path d="M11.3971 21.6075C11.1186 21.6237 10.8447 21.5311 10.6332 21.3493C10.216 20.9296 10.216 20.2518 10.6332 19.8321L19.7676 10.6966C20.2015 10.2906 20.8823 10.3131 21.2883 10.7471C21.6554 11.1395 21.6768 11.7426 21.3384 12.16L12.1502 21.3493C11.9414 21.5285 11.6719 21.6209 11.3971 21.6075Z" fill="#1A1C22"/>
<path d="M20.5203 21.6083C20.2381 21.6071 19.9676 21.495 19.7672 21.2962L10.6327 12.1607C10.2463 11.7093 10.2988 11.0301 10.7501 10.6435C11.1529 10.2985 11.747 10.2985 12.1498 10.6435L21.338 19.779C21.7718 20.1852 21.7942 20.8661 21.3881 21.2999C21.3719 21.3172 21.3552 21.3339 21.338 21.35C21.113 21.5457 20.8169 21.6392 20.5203 21.6083Z" fill="#1A1C22"/>
</g>
<defs>
<clipPath id="clip0_3033_69869">
<rect width="11.3587" height="11.36" fill="white" transform="translate(10.3203 10.3203)"/>
</clipPath>
</defs>
</svg>
