<svg width="32" height="33" viewBox="0 0 32 33" fill="none" xmlns="http://www.w3.org/2000/svg">
<path d="M26.7421 12.8166L7.2929 3.3141C6.19427 2.75936 4.89954 2.95065 3.99052 3.79907C3.07933 4.65087 2.76296 5.97414 3.18334 7.16913C3.20176 7.21752 7.96248 16.504 7.96248 16.504C7.96248 16.504 3.28952 25.7883 3.27327 25.8355C2.85397 27.0317 3.17359 28.3527 4.08478 29.2033C4.64926 29.7288 5.36217 30 6.07942 30C6.52256 30 6.96678 29.8965 7.38066 29.6861L26.7442 20.1914C28.1365 19.5129 29.0011 18.0996 29 16.5029C29 14.9051 28.1321 13.4918 26.7421 12.8166ZM5.19857 6.33534C5.06639 5.86837 5.34809 5.55893 5.44018 5.47116C5.53661 5.38227 5.88874 5.10659 6.34812 5.34064C6.35354 5.34289 25.8222 14.8544 25.8222 14.8544C26.0812 14.9805 26.2968 15.1582 26.4625 15.3743H9.83903L5.19857 6.33534ZM25.8211 18.1547L6.44022 27.6584C5.97975 27.8936 5.62871 27.619 5.53228 27.5279C5.4391 27.4424 5.1574 27.1307 5.29067 26.6626L9.84336 17.6247H26.469C26.3033 17.8442 26.0833 18.0265 25.8211 18.1547Z" fill="#316070"/>
</svg>
