<svg width="55" height="54" viewBox="0 0 55 54" fill="none" xmlns="http://www.w3.org/2000/svg">
<rect x="0.5" width="54" height="54" rx="12" fill="#316070"/>
<g clip-path="url(#clip0_2995_51361)">
<path d="M12.2788 27.6124L15.0953 28.7861C15.4775 28.9452 15.8814 29.0254 16.2853 29.0254C16.6838 29.0254 17.085 28.9465 17.4644 28.7901L19.3902 27.9972C19.8213 27.8205 20.296 27.8218 20.7257 28.0027L22.5617 28.7752C23.3342 29.1016 24.1842 29.103 24.9566 28.7806L26.8321 28C27.2619 27.8205 27.7379 27.8205 28.1676 28L30.043 28.7806C30.8141 29.103 31.6641 29.1016 32.438 28.7752L34.2726 28.0027C34.7037 27.8205 35.1784 27.8205 35.6095 27.9972L37.5353 28.7901C38.2996 29.1056 39.1415 29.1043 39.9058 28.7847L42.721 27.6123C42.9754 27.5063 43.1399 27.2587 43.1399 26.9854V22.9054C43.1399 21.7793 42.2247 20.8654 41.0999 20.8654H34.9799V19.3789C35.7701 19.0974 36.3399 18.3494 36.3399 17.4654C36.3399 15.8687 34.9405 14.4231 34.78 14.264C34.5148 13.9987 34.085 13.9987 33.8185 14.264C33.6594 14.4231 32.2599 15.8687 32.2599 17.4654C32.2599 18.3494 32.8298 19.0974 33.6199 19.3789V20.8654H28.1799V18.0189C28.9701 17.7374 29.5399 16.9894 29.5399 16.1054C29.5399 14.6271 28.2547 12.0132 28.1079 11.7208C27.8767 11.2597 27.1232 11.2597 26.892 11.7208C26.7452 12.0132 25.46 14.6271 25.46 16.1054C25.46 16.9894 26.0298 17.7374 26.82 18.0189V20.8654H21.38V19.3789C22.1702 19.0974 22.74 18.3494 22.74 17.4654C22.74 15.8687 21.3406 14.4231 21.18 14.264C20.9148 13.9987 20.4851 13.9987 20.2186 14.264C20.0594 14.4231 18.66 15.8687 18.66 17.4654C18.66 18.3494 19.2298 19.0974 20.02 19.3789V20.8654H13.8999C12.7751 20.8654 11.8599 21.7793 11.8599 22.9054V26.9854C11.8599 27.2588 12.0244 27.5063 12.2788 27.6124Z" fill="white"/>
<path d="M42.46 37.1855H12.54C11.4153 37.1855 10.5 38.0995 10.5 39.2255C10.5 41.0996 12.0246 42.6255 13.9 42.6255H41.1C42.9754 42.6255 44.5 41.0996 44.5 39.2255C44.5 38.0995 43.5847 37.1855 42.46 37.1855Z" fill="white"/>
<path d="M37.0174 30.0461L35.0916 29.2532C35.0454 29.2342 34.9964 29.2247 34.9489 29.2247C34.8972 29.2247 34.8496 29.2342 34.8007 29.2546L32.966 30.0285C32.4111 30.2624 31.8304 30.3807 31.2347 30.3807C30.6445 30.3807 30.0692 30.2637 29.5184 30.0352L27.6456 29.2546C27.598 29.2342 27.5477 29.2246 27.5001 29.2246C27.4525 29.2246 27.4022 29.2341 27.356 29.2532L25.4792 30.0352C24.9312 30.2637 24.3545 30.3806 23.7656 30.3806C23.1699 30.3806 22.5892 30.2623 22.033 30.0284L20.1997 29.2546C20.1535 29.2355 20.1018 29.2246 20.0515 29.2246C20.0026 29.2246 19.9535 29.2355 19.906 29.2546L17.9829 30.0461C17.4389 30.2704 16.8677 30.3847 16.2857 30.3847C15.6968 30.3847 15.1215 30.269 14.5734 30.0406L13.2202 29.4776V35.8247H41.7802V29.4776L40.4284 30.0406C39.8803 30.2691 39.3051 30.3847 38.7148 30.3847C38.1327 30.3847 37.5601 30.2705 37.0174 30.0461Z" fill="white"/>
</g>
<defs>
<clipPath id="clip0_2995_51361">
<rect width="34" height="34" fill="white" transform="translate(10.5 10)"/>
</clipPath>
</defs>
</svg>
