<svg width="28" height="28" viewBox="0 0 28 28" fill="none" xmlns="http://www.w3.org/2000/svg">
<g clip-path="url(#clip0_2541_28873)">
<path d="M17.5 21.875H5.31281C5.42432 21.4375 5.66785 20.9449 5.9212 20.6911L6.6911 19.9212C7.36615 19.2466 7.875 18.0174 7.875 17.0625V12.25C7.875 11.7668 7.48322 11.375 7 11.375C6.51678 11.375 6.125 11.7668 6.125 12.25V17.0625C6.125 17.5508 5.79858 18.3387 5.4538 18.6839L4.6839 19.4538C4.00885 20.1284 3.5 21.3576 3.5 22.3125V22.75C3.5 23.2332 3.89178 23.625 4.375 23.625H11.375V24.5C11.375 25.9475 12.5525 27.125 14 27.125C15.4475 27.125 16.625 25.9475 16.625 24.5V23.625H17.5C17.9832 23.625 18.375 23.2332 18.375 22.75C18.375 22.2668 17.9832 21.875 17.5 21.875ZM14.875 24.5C14.875 24.9824 14.4824 25.375 14 25.375C13.5176 25.375 13.125 24.9824 13.125 24.5V23.625H14.875V24.5ZM26.8687 25.6313L24.3898 23.1525C24.4543 23.0303 24.5 22.8978 24.5 22.75V22.3125C24.5 21.3576 23.9911 20.1284 23.3161 19.4538L22.5462 18.6839C22.2014 18.3387 21.875 17.5508 21.875 17.0625V10.5C21.875 6.45398 18.8065 3.11377 14.875 2.6767V1.75C14.875 1.26678 14.4832 0.875 14 0.875C13.5168 0.875 13.125 1.26678 13.125 1.75V2.68909C10.7939 2.95099 8.69958 4.23358 7.42084 6.18353L2.36865 1.13135C2.02686 0.789551 1.47314 0.789551 1.13135 1.13135C0.789551 1.47314 0.789551 2.02686 1.13135 2.36865L25.6313 26.8687C25.8022 27.0396 26.0261 27.125 26.25 27.125C26.4739 27.125 26.6978 27.0396 26.8687 26.8687C27.2104 26.5269 27.2104 25.9731 26.8687 25.6313ZM14 4.375C17.3774 4.375 20.125 7.12262 20.125 10.5V17.0625C20.125 18.0174 20.6339 19.2466 21.3089 19.9212L22.0788 20.6911C22.1976 20.8099 22.3125 20.9838 22.4146 21.1773L8.69958 7.46228C9.77966 5.57471 11.7933 4.375 14 4.375Z" fill="#7C7C7C"/>
</g>
<defs>
<clipPath id="clip0_2541_28873">
<rect width="28" height="28" fill="white"/>
</clipPath>
</defs>
</svg>
