<svg width="28" height="28" viewBox="0 0 28 28" fill="none" xmlns="http://www.w3.org/2000/svg">
<rect width="28" height="28" rx="14" fill="#316070"/>
<path d="M9.94795 18.9946C9.70278 19.009 9.46166 18.9265 9.27544 18.7646C8.90819 18.3909 8.90819 17.7872 9.27544 17.4135L17.3172 9.2781C17.6992 8.91651 18.2986 8.93661 18.656 9.32304C18.9793 9.67248 18.9981 10.2096 18.7001 10.5813L10.611 18.7646C10.4272 18.9242 10.1899 19.0065 9.94795 18.9946Z" fill="white"/>
<path d="M17.9815 18.9948C17.733 18.9938 17.4948 18.894 17.3184 18.7169L9.27659 10.5815C8.93634 10.1796 8.9826 9.57466 9.37993 9.23042C9.73456 8.92319 10.2576 8.92319 10.6122 9.23042L18.7013 17.3658C19.0832 17.7275 19.103 18.3339 18.7454 18.7202C18.7312 18.7356 18.7165 18.7505 18.7013 18.7649C18.5033 18.9391 18.2426 19.0224 17.9815 18.9948Z" fill="white"/>
</svg>
