<svg width="24" height="24" viewBox="0 0 24 24" fill="none" xmlns="http://www.w3.org/2000/svg">
<path d="M12.0098 13.5136L18.4502 7.4072C18.7484 7.12426 19.0988 6.98877 19.5013 7.00073C19.9039 7.01269 20.2543 7.16013 20.5524 7.44307C20.8508 7.72577 21 8.06396 21 8.45764C21 8.85132 20.8508 9.1895 20.5524 9.4722L13.0825 16.5555C12.9279 16.7021 12.759 16.8128 12.5759 16.8877C12.3927 16.9626 12.2041 17 12.0098 17C11.8156 17 11.6269 16.9626 11.4438 16.8877C11.2607 16.8128 11.0918 16.7021 10.9372 16.5555L3.42945 9.43633C3.13105 9.15363 2.98816 8.82142 3.00077 8.4397C3.01338 8.05798 3.16889 7.72577 3.46728 7.44307C3.76543 7.16013 4.1221 7.01866 4.53728 7.01866C4.95246 7.01866 5.30913 7.16013 5.60727 7.44307L12.0098 13.5136Z" fill="#1A1A1A"/>
</svg>
