<svg width="28" height="28" viewBox="0 0 28 28" fill="none" xmlns="http://www.w3.org/2000/svg">
<path d="M5.55301 21.9455C5.55301 21.9455 5.64634 21.9455 5.68134 21.9455L9.09967 21.6305C9.57801 21.5839 10.0213 21.3739 10.3597 21.0355L23.263 8.13219C23.8697 7.52552 24.208 6.72052 24.208 5.86885C24.208 5.01719 23.8697 4.21219 23.263 3.60552L22.4347 2.77719C21.2213 1.56385 19.1097 1.56385 17.8963 2.77719L16.2513 4.42219L5.00467 15.6689C4.66634 16.0072 4.45634 16.4505 4.42134 16.9289L4.10634 20.3472C4.07134 20.7789 4.22301 21.1989 4.52634 21.5139C4.80634 21.7939 5.16801 21.9455 5.55301 21.9455ZM20.1713 3.58219C20.5447 3.58219 20.918 3.72219 21.198 4.01385L22.0263 4.84219C22.3063 5.12219 22.458 5.48385 22.458 5.86885C22.458 6.25385 22.3063 6.62719 22.0263 6.89552L20.9997 7.92219L18.118 5.04052L19.1447 4.01385C19.4247 3.73385 19.798 3.58219 20.1713 3.58219ZM6.15967 17.0922C6.15967 17.0222 6.19467 16.9639 6.24134 16.9172L16.8697 6.27719L19.7513 9.15885L9.12301 19.7872C9.12301 19.7872 9.00634 19.8689 8.94801 19.8689L5.87967 20.1489L6.15967 17.0805V17.0922ZM26.5413 25.6672C26.5413 26.1455 26.1447 26.5422 25.6663 26.5422H2.33301C1.85467 26.5422 1.45801 26.1455 1.45801 25.6672C1.45801 25.1889 1.85467 24.7922 2.33301 24.7922H25.6663C26.1447 24.7922 26.5413 25.1889 26.5413 25.6672Z" fill="white"/>
</svg>
