<svg width="24" height="24" viewBox="0 0 24 24" fill="none" xmlns="http://www.w3.org/2000/svg">
<path d="M4.39795 11.1775C4.66378 13.004 5.57833 14.6738 6.9743 15.8813C8.37026 17.0888 10.1543 17.7533 12.0001 17.7533M12.0001 17.7533C13.8458 17.7533 15.6298 17.0888 17.0258 15.8813C18.4218 14.6738 19.3363 13.004 19.6022 11.1775M12.0001 17.7533V21.6004M12.0011 2.40039C11.1282 2.40039 10.291 2.74717 9.67376 3.36443C9.05649 3.98169 8.70972 4.81888 8.70972 5.69182V10.0804C8.70972 10.9533 9.05649 11.7905 9.67376 12.4078C10.291 13.025 11.1282 13.3718 12.0011 13.3718C12.8741 13.3718 13.7113 13.025 14.3285 12.4078C14.9458 11.7905 15.2926 10.9533 15.2926 10.0804V5.69182C15.2926 4.81888 14.9458 3.98169 14.3285 3.36443C13.7113 2.74717 12.8741 2.40039 12.0011 2.40039Z" stroke="#316070" stroke-width="2" stroke-linecap="round" stroke-linejoin="round"/>
</svg>
