<svg width="24" height="24" viewBox="0 0 24 24" fill="none" xmlns="http://www.w3.org/2000/svg">
<path fill-rule="evenodd" clip-rule="evenodd" d="M7.98687 4C7.70563 2.84985 6.71377 2 5.53333 2C4.13421 2 3 3.19391 3 4.66667C3 6.13943 4.13421 7.33333 5.53333 7.33333C6.71377 7.33333 7.70563 6.4835 7.98687 5.33333H18.2C19.5991 5.33333 20.7333 6.52723 20.7333 8C20.7333 9.47276 19.5991 10.6667 18.2 10.6667H7.0375C4.80765 10.6667 3 12.5695 3 14.9167C3 17.2639 4.80765 19.1667 7.0375 19.1667H19.709L17.936 20.8365C17.6753 21.082 17.6531 21.5035 17.8863 21.7779C18.1196 22.0523 18.52 22.0757 18.7806 21.8302L21.789 18.9968C21.9232 18.8704 22 18.6897 22 18.5C22 18.3103 21.9232 18.1296 21.789 18.0032L18.7806 15.1698C18.52 14.9243 18.1196 14.9477 17.8863 15.2221C17.6531 15.4965 17.6753 15.918 17.936 16.1635L19.709 17.8333H7.0375C5.50721 17.8333 4.26667 16.5275 4.26667 14.9167C4.26667 13.3058 5.50721 12 7.0375 12H18.2C20.2987 12 22 10.2091 22 8C22 5.79086 20.2987 4 18.2 4H7.98687ZM4.26667 4.66667C4.26667 3.93029 4.83377 3.33333 5.53333 3.33333C6.23288 3.33333 6.8 3.93029 6.8 4.66667C6.8 5.40303 6.23288 6 5.53333 6C4.83377 6 4.26667 5.40303 4.26667 4.66667Z" fill="#316070" stroke="#316070" stroke-width="0.6"/>
</svg>
