<svg width="150" height="189" viewBox="0 0 150 189" fill="none" xmlns="http://www.w3.org/2000/svg">
<path d="M139 2.50365L143.802 9.71093L135.159 10.2656L139 2.50365ZM10.0002 183.002L5.81966 175.417L14.4782 175.589L10.0002 183.002ZM140.181 9.19864C141.142 34.6327 133.771 50.6208 122.026 62.0667C110.337 73.458 94.3567 80.2966 78.2939 87.5523C62.1787 94.8317 45.9364 102.545 33.4089 115.664C20.9109 128.752 12.0583 147.281 10.8832 176.294L9.38447 176.233C10.5721 146.909 19.5398 128.016 32.3241 114.628C45.0789 101.271 61.581 93.4558 77.6764 86.1853C93.8242 78.8912 109.521 72.1593 120.979 60.9924C132.382 49.8801 139.629 34.3221 138.682 9.25525L140.181 9.19864Z" fill="white"/>
</svg>
