<svg width="36" height="36" viewBox="0 0 36 36" fill="none" xmlns="http://www.w3.org/2000/svg">
<path d="M32 27.676V17.8313C32 16.8831 31.9992 16.4087 31.8855 15.9675C31.7847 15.5765 31.6193 15.2065 31.3955 14.8722C31.1429 14.4948 30.7917 14.182 30.088 13.5576L21.688 6.10474C20.3814 4.94549 19.7281 4.36616 18.9929 4.1457C18.3451 3.95143 17.6546 3.95143 17.0067 4.1457C16.2721 4.366 15.6197 4.94478 14.3151 6.10227L5.91235 13.5576C5.20862 14.182 4.85757 14.4948 4.60498 14.8722C4.38114 15.2065 4.21446 15.5765 4.1137 15.9675C4 16.4087 4 16.8831 4 17.8313V27.676C4 29.3296 4 30.1561 4.26642 30.8083C4.62165 31.6779 5.30256 32.3696 6.16016 32.7298C6.80336 33 7.61875 33 9.24955 33C10.8803 33 11.6966 33 12.3398 32.7298C13.1974 32.3696 13.8782 31.6781 14.2334 30.8085C14.4998 30.1563 14.5 29.3295 14.5 27.6758V25.9014C14.5 23.9413 16.067 22.3524 18 22.3524C19.933 22.3524 21.5 23.9413 21.5 25.9014V27.6758C21.5 29.3295 21.5 30.1563 21.7664 30.8085C22.1216 31.6781 22.8026 32.3696 23.6602 32.7298C24.3034 33 25.1188 33 26.7495 33C28.3803 33 29.1966 33 29.8398 32.7298C30.6974 32.3696 31.3782 31.6779 31.7334 30.8083C31.9998 30.1561 32 29.3296 32 27.676Z" stroke="#316070" stroke-width="1.8"/>
</svg>
