<svg width="32" height="32" viewBox="0 0 32 32" fill="none" xmlns="http://www.w3.org/2000/svg">
<path d="M20.9994 9.00025C20.9994 8.40686 21.1753 7.82679 21.505 7.3334C21.8347 6.84001 22.3033 6.45546 22.8515 6.22838C23.3997 6.0013 24.003 5.94189 24.585 6.05765C25.167 6.17342 25.7015 6.45916 26.1211 6.87875C26.5407 7.29835 26.8265 7.83294 26.9422 8.41493C27.058 8.99692 26.9986 9.60017 26.7715 10.1484C26.5444 10.6966 26.1599 11.1652 25.6665 11.4949C25.1731 11.8245 24.593 12.0005 23.9996 12.0005C23.2039 12.0005 22.4408 11.6844 21.8781 11.1217C21.3155 10.5591 20.9994 9.79597 20.9994 9.00025ZM5.99813 10.0003H17.9991C18.2644 10.0003 18.5188 9.89497 18.7063 9.70742C18.8939 9.51986 18.9992 9.26549 18.9992 9.00025C18.9992 8.73501 18.8939 8.48064 18.7063 8.29309C18.5188 8.10553 18.2644 8.00017 17.9991 8.00017H5.99813C5.73289 8.00017 5.47852 8.10553 5.29096 8.29309C5.10341 8.48064 4.99805 8.73501 4.99805 9.00025C4.99805 9.26549 5.10341 9.51986 5.29096 9.70742C5.47852 9.89497 5.73289 10.0003 5.99813 10.0003ZM11.9986 13.0006C11.3796 13.0023 10.7763 13.1955 10.2714 13.5536C9.76652 13.9117 9.38473 14.4172 9.1784 15.0007H5.99813C5.73289 15.0007 5.47852 15.1061 5.29096 15.2937C5.10341 15.4812 4.99805 15.7356 4.99805 16.0008C4.99805 16.2661 5.10341 16.5204 5.29096 16.708C5.47852 16.8956 5.73289 17.0009 5.99813 17.0009H9.1784C9.36187 17.5198 9.68454 17.9783 10.1111 18.3261C10.5377 18.6739 11.0517 18.8977 11.597 18.9729C12.1422 19.0481 12.6976 18.9719 13.2024 18.7526C13.7073 18.5334 14.142 18.1794 14.4592 17.7296C14.7763 17.2797 14.9636 16.7513 15.0005 16.2021C15.0375 15.653 14.9226 15.1043 14.6686 14.616C14.4145 14.1277 14.0311 13.7188 13.5602 13.4338C13.0892 13.1489 12.549 12.999 11.9986 13.0006ZM25.9998 15.0007H17.9991C17.7339 15.0007 17.4795 15.1061 17.292 15.2937C17.1044 15.4812 16.9991 15.7356 16.9991 16.0008C16.9991 16.2661 17.1044 16.5204 17.292 16.708C17.4795 16.8956 17.7339 17.0009 17.9991 17.0009H25.9998C26.265 17.0009 26.5194 16.8956 26.707 16.708C26.8945 16.5204 26.9999 16.2661 26.9999 16.0008C26.9999 15.7356 26.8945 15.4812 26.707 15.2937C26.5194 15.1061 26.265 15.0007 25.9998 15.0007ZM13.9988 22.0013H5.99813C5.73289 22.0013 5.47852 22.1067 5.29096 22.2943C5.10341 22.4818 4.99805 22.7362 4.99805 23.0014C4.99805 23.2667 5.10341 23.521 5.29096 23.7086C5.47852 23.8961 5.73289 24.0015 5.99813 24.0015H13.9988C14.264 24.0015 14.5184 23.8961 14.706 23.7086C14.8935 23.521 14.9989 23.2667 14.9989 23.0014C14.9989 22.7362 14.8935 22.4818 14.706 22.2943C14.5184 22.1067 14.264 22.0013 13.9988 22.0013ZM25.9998 22.0013H22.8195C22.5836 21.3341 22.1194 20.7717 21.5089 20.4136C20.8985 20.0555 20.1811 19.9247 19.4835 20.0444C18.786 20.1641 18.1532 20.5265 17.697 21.0676C17.2408 21.6087 16.9906 22.2937 16.9906 23.0014C16.9906 23.7092 17.2408 24.3941 17.697 24.9352C18.1532 25.4764 18.786 25.8388 19.4835 25.9585C20.1811 26.0781 20.8985 25.9474 21.5089 25.5893C22.1194 25.2312 22.5836 24.6688 22.8195 24.0015H25.9998C26.265 24.0015 26.5194 23.8961 26.707 23.7086C26.8945 23.521 26.9999 23.2667 26.9999 23.0014C26.9999 22.7362 26.8945 22.4818 26.707 22.2943C26.5194 22.1067 26.265 22.0013 25.9998 22.0013Z" fill="#316070"/>
</svg>
