<svg width="24" height="24" viewBox="0 0 24 24" fill="none" xmlns="http://www.w3.org/2000/svg">
<path d="M9.99677 22.0722C9.20985 22.0722 8.56966 21.4363 8.56966 20.6547V19.0526H6.58119C5.9574 19.0526 5.44981 18.5484 5.44981 17.9288V14.6599H4.2077C3.78759 14.6599 3.32236 14.4078 3.12643 14.0738C2.99748 13.8539 2.99156 13.6176 3.11094 13.4081L4.77088 10.4871C4.76314 10.3446 4.75949 10.2029 4.75949 10.0653C4.75949 5.61789 8.40244 2 12.8797 2C17.3574 2 20.9999 5.61834 20.9999 10.0653C20.9999 12.784 19.6448 15.2863 17.3669 16.7879V20.6552C17.3669 21.4368 16.7268 22.0726 15.9398 22.0726L9.99677 22.0722ZM12.8792 2.52091C8.69087 2.52091 5.28395 5.90527 5.28395 10.0649C5.28395 10.2165 5.28896 10.374 5.29899 10.5319C5.30218 10.5822 5.29033 10.6324 5.26572 10.6763L3.56796 13.6638C3.5552 13.6864 3.53151 13.728 3.57981 13.8104C3.68051 13.9819 3.97987 14.1381 4.2077 14.1381H5.71226C5.85716 14.1381 5.97472 14.2548 5.97472 14.3988V17.9284C5.97472 18.2606 6.24674 18.5308 6.58119 18.5308H8.83212C8.97702 18.5308 9.09457 18.6475 9.09457 18.7915V20.6543C9.09457 21.1485 9.49919 21.5504 9.99677 21.5504H15.9394C16.437 21.5504 16.8416 21.1485 16.8416 20.6543V16.6458C16.8416 16.5566 16.8871 16.4738 16.9628 16.4263C19.1618 15.0306 20.4745 12.6527 20.4745 10.0649C20.475 5.90527 17.0676 2.52091 12.8792 2.52091Z" fill="#316070" stroke="#316070"/>
<path d="M12.887 14.366C12.8154 14.366 12.7471 14.337 12.6974 14.2859C10.6369 12.152 8.50586 9.9452 8.50586 7.70767C8.50586 6.38796 9.54748 5.31445 10.8274 5.31445C11.8508 5.31445 12.4263 5.81772 12.8865 6.61153C13.3467 5.81772 13.9227 5.31445 14.9456 5.31445C16.226 5.31445 17.2671 6.38796 17.2671 7.70767C17.2671 9.94475 15.1365 12.1515 13.0756 14.2854C13.0268 14.337 12.9585 14.366 12.887 14.366ZM10.8279 5.83582C9.83728 5.83582 9.03123 6.67535 9.03123 7.70767C9.03123 9.67094 10.9595 11.7302 12.8874 13.7283C14.8153 11.7297 16.7436 9.67094 16.7436 7.70767C16.7436 6.67535 15.9376 5.83582 14.947 5.83582C14.1081 5.83582 13.6484 6.20195 13.1244 7.28723C13.0806 7.37774 12.9886 7.43522 12.8879 7.43522C12.7872 7.43522 12.6947 7.37774 12.6514 7.28723C12.1265 6.20195 11.6667 5.83582 10.8279 5.83582Z" fill="#316070" stroke="#316070"/>
</svg>
