<svg width="24" height="24" viewBox="0 0 24 24" fill="none" xmlns="http://www.w3.org/2000/svg">
<path d="M20.2422 3.17188H19.6562V2.58594C19.6562 2.26234 19.3939 2 19.0703 2C18.7467 2 18.4844 2.26234 18.4844 2.58594V3.17188H16.1016V2.58594C16.1016 2.26234 15.8392 2 15.5156 2C15.192 2 14.9297 2.26234 14.9297 2.58594V3.17188H12.5859V2.58594C12.5859 2.26234 12.3236 2 12 2C11.6764 2 11.4141 2.26234 11.4141 2.58594V3.17188H9.07031V2.58594C9.07031 2.26234 8.80797 2 8.48438 2C8.16078 2 7.89844 2.26234 7.89844 2.58594V3.17188H5.51562V2.58594C5.51562 2.26234 5.25328 2 4.92969 2C4.60609 2 4.34375 2.26234 4.34375 2.58594V3.17188H3.75781C2.78855 3.17188 2 3.96043 2 4.92969C2 5.6475 2 19.436 2 20.2422C2 21.2114 2.78855 22 3.75781 22H20.2422C21.2114 22 22 21.2114 22 20.2422C22 19.4357 22 5.64715 22 4.92969C22 3.96043 21.2114 3.17188 20.2422 3.17188ZM20.8281 20.2422C20.8281 20.5653 20.5653 20.8281 20.2422 20.8281H3.75781C3.43473 20.8281 3.17188 20.5653 3.17188 20.2422V7.85938H20.8281V20.2422ZM20.8281 6.6875H3.17188V4.92969C3.17188 4.6066 3.43473 4.34375 3.75781 4.34375H4.34375V4.92969C4.34375 5.25328 4.60609 5.51562 4.92969 5.51562C5.25328 5.51562 5.51562 5.25328 5.51562 4.92969V4.34375H7.89844V4.92969C7.89844 5.25328 8.16078 5.51562 8.48438 5.51562C8.80797 5.51562 9.07031 5.25328 9.07031 4.92969V4.34375H11.4141V4.92969C11.4141 5.25328 11.6764 5.51562 12 5.51562C12.3236 5.51562 12.5859 5.25328 12.5859 4.92969V4.34375H14.9297V4.92969C14.9297 5.25328 15.192 5.51562 15.5156 5.51562C15.8392 5.51562 16.1016 5.25328 16.1016 4.92969V4.34375H18.4844V4.92969C18.4844 5.25328 18.7467 5.51562 19.0703 5.51562C19.3939 5.51562 19.6562 5.25328 19.6562 4.92969V4.34375H20.2422C20.5653 4.34375 20.8281 4.6066 20.8281 4.92969V6.6875Z" fill="#316070" stroke="#316070" stroke-width="0.4"/>
<path d="M16.6875 18.4844H16.1016V16.7266C16.1016 15.7573 15.313 14.9688 14.3438 14.9688H12.5859V13.657C13.2679 13.4152 13.7578 12.7639 13.7578 12C13.7578 11.7023 13.6728 11.3988 13.5855 11.2462L12.5085 9.36512C12.4041 9.18277 12.2101 9.07031 12 9.07031C11.7899 9.07031 11.5959 9.18277 11.4915 9.36512L10.4145 11.2462C10.3286 11.3963 10.2422 11.6982 10.2422 12C10.2422 12.7639 10.7321 13.4152 11.4141 13.657V14.9688H9.65625C8.68699 14.9688 7.89844 15.7573 7.89844 16.7266V18.4844H7.3125C6.98891 18.4844 6.72656 18.7467 6.72656 19.0703C6.72656 19.3939 6.98891 19.6562 7.3125 19.6562C7.62484 19.6562 16.2001 19.6562 16.6875 19.6562C17.0111 19.6562 17.2734 19.3939 17.2734 19.0703C17.2734 18.7467 17.0111 18.4844 16.6875 18.4844ZM11.4509 11.7945L12 10.8355L12.5491 11.7945C12.5736 11.8598 12.5859 11.9288 12.5859 12C12.5859 12.3231 12.3231 12.5859 12 12.5859C11.6769 12.5859 11.4141 12.3231 11.4141 12C11.4141 11.9288 11.4264 11.8598 11.4509 11.7945ZM14.9297 18.4844H9.07031V16.7266C9.07031 16.4035 9.33316 16.1406 9.65625 16.1406H14.3438C14.6668 16.1406 14.9297 16.4035 14.9297 16.7266V18.4844Z" fill="#316070" stroke="#316070" stroke-width="0.4"/>
</svg>
