<svg width="24" height="24" viewBox="0 0 24 24" fill="none" xmlns="http://www.w3.org/2000/svg">
<path d="M11.9995 1C5.92521 1 1 5.92521 1 11.9995C1 18.0739 5.92521 23 11.9995 23C18.0739 23 23 18.0739 23 11.9995C23 5.92521 18.0739 1 11.9995 1ZM14.2894 18.0478C13.7232 18.2713 13.2725 18.4408 12.9345 18.5581C12.5974 18.6754 12.2053 18.7341 11.7593 18.7341C11.0739 18.7341 10.5403 18.5665 10.1604 18.2322C9.78044 17.8979 9.59141 17.4742 9.59141 16.9592C9.59141 16.759 9.60538 16.5541 9.63331 16.3455C9.66218 16.1369 9.70781 15.9023 9.7702 15.6387L10.4789 13.1356C10.5412 12.8954 10.5953 12.6672 10.6381 12.4549C10.6809 12.2407 10.7014 12.0442 10.7014 11.8654C10.7014 11.547 10.6353 11.3235 10.504 11.1978C10.3708 11.072 10.1203 11.0106 9.74692 11.0106C9.5644 11.0106 9.3763 11.0376 9.18353 11.0944C8.99264 11.1531 8.82688 11.2061 8.69092 11.2583L8.8781 10.4872C9.34184 10.2982 9.78603 10.1362 10.2097 10.0021C10.6334 9.86612 11.0339 9.79907 11.411 9.79907C12.0917 9.79907 12.6169 9.96483 12.9866 10.2926C13.3545 10.6213 13.5398 11.0488 13.5398 11.574C13.5398 11.6829 13.5267 11.8748 13.5016 12.1485C13.4764 12.4232 13.429 12.6737 13.36 12.9037L12.6551 15.3994C12.5974 15.5996 12.5462 15.8287 12.4996 16.0848C12.454 16.3409 12.4316 16.5364 12.4316 16.6677C12.4316 16.9992 12.5052 17.2255 12.6542 17.3457C12.8013 17.4658 13.0593 17.5263 13.4243 17.5263C13.5966 17.5263 13.7893 17.4956 14.0072 17.436C14.2233 17.3764 14.3797 17.3233 14.4784 17.2777L14.2894 18.0478ZM14.1646 7.91801C13.8359 8.22345 13.4401 8.37617 12.9773 8.37617C12.5154 8.37617 12.1169 8.22345 11.7854 7.91801C11.4557 7.61257 11.289 7.24102 11.289 6.80707C11.289 6.37405 11.4566 6.00157 11.7854 5.69333C12.1169 5.38417 12.5154 5.23052 12.9773 5.23052C13.4401 5.23052 13.8368 5.38417 14.1646 5.69333C14.4933 6.00157 14.6582 6.37405 14.6582 6.80707C14.6582 7.24195 14.4933 7.61257 14.1646 7.91801Z" fill="#F9FAFB"/>
</svg>
