<svg width="42" height="42" viewBox="0 0 42 42" fill="none" xmlns="http://www.w3.org/2000/svg">
<circle cx="21" cy="21" r="21" fill="#F2F9FB"/>
<path d="M26.2097 13.337L12.2414 18.8105C11.653 19.0411 11.252 19.5754 11.1949 20.2048C11.1378 20.8343 11.4362 21.432 11.9735 21.7647L16.2176 24.3921L20.5664 20.2023C20.7665 20.0095 21.0851 20.0154 21.2779 20.2155C21.4707 20.4156 21.4648 20.7342 21.2647 20.927L16.9159 25.1169L19.3835 29.4558C19.696 30.0052 20.2821 30.3256 20.9133 30.292C21.5457 30.2583 22.0937 29.8764 22.3457 29.298L28.3353 15.5432C28.608 14.9169 28.4829 14.2223 28.009 13.7304C27.5351 13.2385 26.8456 13.0877 26.2097 13.337Z" fill="#316070"/>
</svg>
