<svg width="24" height="26" viewBox="0 0 24 26" fill="none" xmlns="http://www.w3.org/2000/svg">
<path fill-rule="evenodd" clip-rule="evenodd" d="M12.3984 24.8075C14.3158 23.8425 22.5 19.2683 22.5 11.5C22.5 5.70101 17.799 1 12 1C6.20101 1 1.5 5.70101 1.5 11.5C1.5 19.2683 9.68423 23.8425 11.6016 24.8075C11.856 24.9355 12.144 24.9355 12.3984 24.8075ZM12 16C14.4853 16 16.5 13.9853 16.5 11.5C16.5 9.01472 14.4853 7 12 7C9.51472 7 7.5 9.01472 7.5 11.5C7.5 13.9853 9.51472 16 12 16Z" fill="#396381" fill-opacity="0.84"/>
<path d="M12.3984 24.8075L12.6682 25.3434L12.3984 24.8075ZM11.6016 24.8075L11.8713 24.2715H11.8713L11.6016 24.8075ZM21.9 11.5C21.9 15.1597 19.9736 18.1003 17.7487 20.276C15.5255 22.4501 13.0611 23.8022 12.1287 24.2715L12.6682 25.3434C13.6531 24.8477 16.2395 23.4302 18.5877 21.134C20.9343 18.8393 23.1 15.6086 23.1 11.5H21.9ZM12 1.6C17.4676 1.6 21.9 6.03238 21.9 11.5H23.1C23.1 5.36964 18.1304 0.4 12 0.4V1.6ZM2.1 11.5C2.1 6.03238 6.53238 1.6 12 1.6V0.4C5.86964 0.4 0.9 5.36964 0.9 11.5H2.1ZM11.8713 24.2715C10.9389 23.8022 8.47454 22.4501 6.25128 20.276C4.0264 18.1003 2.1 15.1597 2.1 11.5H0.9C0.9 15.6086 3.06572 18.8393 5.41228 21.134C7.76047 23.4302 10.3469 24.8477 11.3318 25.3434L11.8713 24.2715ZM12.1287 24.2715C12.0439 24.3142 11.9561 24.3142 11.8713 24.2715L11.3318 25.3434C11.7559 25.5569 12.2441 25.5569 12.6682 25.3434L12.1287 24.2715ZM15.9 11.5C15.9 13.6539 14.1539 15.4 12 15.4V16.6C14.8167 16.6 17.1 14.3167 17.1 11.5H15.9ZM12 7.6C14.1539 7.6 15.9 9.34609 15.9 11.5H17.1C17.1 8.68335 14.8167 6.4 12 6.4V7.6ZM8.1 11.5C8.1 9.34609 9.84609 7.6 12 7.6V6.4C9.18335 6.4 6.9 8.68335 6.9 11.5H8.1ZM12 15.4C9.84609 15.4 8.1 13.6539 8.1 11.5H6.9C6.9 14.3167 9.18335 16.6 12 16.6V15.4Z" fill="#222222"/>
</svg>
