<svg width="20" height="20" viewBox="0 0 20 20" fill="none" xmlns="http://www.w3.org/2000/svg">
<g clip-path="url(#clip0_3501_118836)">
<path d="M10 20C15.5228 20 20 15.5229 20 10C20 4.47714 15.5228 0 10 0C4.47714 0 0 4.47714 0 10C0 15.5229 4.47714 20 10 20ZM8.00886 8.00886L15.1102 4.88969L11.9911 11.9911L4.88977 15.1102L8.00886 8.00886Z" fill="white"/>
<path d="M9.99994 11.0326C10.6335 11.0326 11.1471 10.519 11.1471 9.88544C11.1471 9.25188 10.6335 8.73828 9.99994 8.73828C9.36638 8.73828 8.85278 9.25188 8.85278 9.88544C8.85278 10.519 9.36638 11.0326 9.99994 11.0326Z" fill="white"/>
</g>
<defs>
<clipPath id="clip0_3501_118836">
<rect width="20" height="20" fill="white"/>
</clipPath>
</defs>
</svg>
