<svg width="28" height="28" viewBox="0 0 28 28" fill="none" xmlns="http://www.w3.org/2000/svg">
<path d="M12.5705 14.1642C15.9233 14.164 17.1297 10.807 17.4455 8.04943C17.8345 4.6524 16.2281 2.0957 12.5705 2.0957C8.91347 2.0957 7.30623 4.65221 7.69556 8.04943C8.01167 10.807 9.21768 14.1645 12.5705 14.1642Z" fill="#316070"/>
<path d="M19.9022 15.561C20.01 15.561 20.1172 15.5642 20.2237 15.5702C20.0641 15.3426 19.8794 15.1418 19.6633 14.9804C19.0191 14.4996 18.1847 14.3418 17.4471 14.052C17.088 13.9109 16.7665 13.7708 16.4647 13.6113C15.446 14.7285 14.1175 15.3129 12.5705 15.3131C11.0241 15.3131 9.69574 14.7287 8.67715 13.6113C8.37532 13.7709 8.05372 13.9109 7.69474 14.052C6.95712 14.3419 6.12278 14.4996 5.4785 14.9804C4.36432 15.812 4.07637 17.6828 3.85014 18.9589C3.66343 20.0124 3.53799 21.0874 3.50138 22.1574C3.47302 22.9862 3.88223 23.1024 4.57561 23.3526C5.4438 23.6657 6.34023 23.8982 7.24269 24.0887C8.98556 24.4568 10.7821 24.7396 12.5708 24.7522C13.4376 24.746 14.3061 24.6761 15.1695 24.5642C14.5302 23.638 14.1553 22.516 14.1553 21.308C14.1553 18.139 16.7333 15.561 19.9022 15.561Z" fill="#316070"/>
<path d="M19.9022 16.7109C17.3632 16.7109 15.3047 18.7694 15.3047 21.3085C15.3047 23.8476 17.3631 25.906 19.9022 25.906C22.4413 25.906 24.4998 23.8476 24.4998 21.3085C24.4998 18.7694 22.4413 16.7109 19.9022 16.7109ZM21.9137 22.0973H20.691V23.3198C20.691 23.7555 20.3379 24.1087 19.9023 24.1087C19.4666 24.1087 19.1134 23.7555 19.1134 23.3198V22.0973H17.8908C17.4552 22.0973 17.102 21.7441 17.102 21.3084C17.102 20.8727 17.4551 20.5196 17.8908 20.5196H19.1134V19.297C19.1134 18.8613 19.4666 18.5081 19.9023 18.5081C20.3379 18.5081 20.691 18.8613 20.691 19.297V20.5196H21.9137C22.3493 20.5196 22.7025 20.8727 22.7025 21.3084C22.7025 21.7442 22.3494 22.0973 21.9137 22.0973Z" fill="#316070"/>
</svg>
