<svg width="55" height="54" viewBox="0 0 55 54" fill="none" xmlns="http://www.w3.org/2000/svg">
<rect x="0.5" width="54" height="54" rx="12" fill="#316070"/>
<path d="M25.7641 27.1996C29.8353 27.1993 31.3002 23.1229 31.6837 19.7744C32.1561 15.6495 30.2054 12.5449 25.7641 12.5449C21.3234 12.5449 19.3717 15.6492 19.8445 19.7744C20.2283 23.1229 21.6928 27.1998 25.7641 27.1996Z" fill="white"/>
<path d="M34.6669 28.8968C34.7979 28.8968 34.9281 28.9007 35.0573 28.9079C34.8636 28.6315 34.6393 28.3877 34.3769 28.1918C33.5946 27.6079 32.5814 27.4163 31.6857 27.0644C31.2497 26.8931 30.8593 26.723 30.4928 26.5293C29.2558 27.8859 27.6427 28.5955 25.7642 28.5957C23.8864 28.5957 22.2734 27.8861 21.0365 26.5293C20.67 26.723 20.2795 26.8931 19.8436 27.0644C18.9479 27.4164 17.9348 27.6079 17.1525 28.1918C15.7995 29.2016 15.4499 31.4733 15.1752 33.0228C14.9484 34.302 14.7961 35.6073 14.7517 36.9066C14.7172 37.913 15.2141 38.0541 16.0561 38.358C17.1103 38.7382 18.1988 39.0204 19.2947 39.2518C21.411 39.6988 23.5925 40.0422 25.7646 40.0575C26.8171 40.05 27.8717 39.9651 28.92 39.8292C28.1438 38.7045 27.6885 37.3421 27.6885 35.8752C27.6886 32.0272 30.819 28.8968 34.6669 28.8968Z" fill="white"/>
<path d="M34.6667 30.293C31.5836 30.293 29.084 32.7925 29.084 35.8757C29.084 38.9589 31.5835 41.4584 34.6667 41.4584C37.7499 41.4584 40.2495 38.9589 40.2495 35.8757C40.2495 32.7925 37.7499 30.293 34.6667 30.293ZM37.1092 36.8335H35.6246V38.3181C35.6246 38.8471 35.1957 39.276 34.6668 39.276C34.1377 39.276 33.7089 38.8471 33.7089 38.3181V36.8335H32.2243C31.6953 36.8335 31.2664 36.4047 31.2664 35.8756C31.2664 35.3466 31.6952 34.9177 32.2243 34.9177H33.7089V33.4332C33.7089 32.9041 34.1377 32.4753 34.6668 32.4753C35.1958 32.4753 35.6246 32.9041 35.6246 33.4332V34.9177H37.1092C37.6382 34.9177 38.0671 35.3466 38.0671 35.8756C38.067 36.4047 37.6382 36.8335 37.1092 36.8335Z" fill="white"/>
</svg>
