<svg width="24" height="25" viewBox="0 0 24 25" fill="none" xmlns="http://www.w3.org/2000/svg">
<path d="M16.7994 5.27937V4.31937C16.7994 3.79137 16.3674 3.35938 15.8394 3.35938C15.3114 3.35938 14.8794 3.79137 14.8794 4.31937V5.27937H9.11937V4.31937C9.11937 3.79137 8.68737 3.35938 8.15937 3.35938C7.63137 3.35938 7.19937 3.79137 7.19937 4.31937V5.27937C5.07777 5.27937 3.35938 6.99777 3.35938 9.11937V17.7594C3.35938 19.881 5.07777 21.5994 7.19937 21.5994H16.7994C18.921 21.5994 20.6394 19.881 20.6394 17.7594V9.11937C20.6394 6.99777 18.921 5.27937 16.7994 5.27937ZM18.7194 17.7594C18.7194 18.8154 17.8554 19.6794 16.7994 19.6794H7.19937C6.14337 19.6794 5.27937 18.8154 5.27937 17.7594V9.11937C5.27937 8.06337 6.14337 7.19937 7.19937 7.19937V8.15937C7.19937 8.68738 7.63137 9.11937 8.15937 9.11937C8.68737 9.11937 9.11937 8.68738 9.11937 8.15937V7.19937H14.8794V8.15937C14.8794 8.68738 15.3114 9.11937 15.8394 9.11937C16.3674 9.11937 16.7994 8.68738 16.7994 8.15937V7.19937C17.8554 7.19937 18.7194 8.06337 18.7194 9.11937V17.7594Z" fill="white"/>
<path d="M14.245 11.3524L11.221 14.6068L10.0114 13.33C9.64663 12.946 9.04184 12.9268 8.65784 13.2916C8.27384 13.6564 8.25463 14.2612 8.61943 14.6452L10.2418 16.354C10.501 16.6228 10.8562 16.786 11.2306 16.786C11.605 16.786 11.9602 16.6228 12.2194 16.354L15.6466 12.658C16.0114 12.2644 15.9826 11.6596 15.5986 11.3044C15.205 10.9396 14.6002 10.9684 14.245 11.3524Z" fill="white"/>
</svg>
