<svg width="22" height="23" viewBox="0 0 22 23" fill="none" xmlns="http://www.w3.org/2000/svg">
<path d="M13.1992 14.1219V8.70769M4.59373 3.67188H11.0006C11.037 4.96902 12.0999 6.00937 13.4059 6.00937C14.7118 6.00937 15.7748 4.96902 15.8111 3.67188H17.4055C19.3352 3.67188 20.8996 5.23624 20.8996 7.16599V15.8348C20.8996 17.7646 19.3352 19.329 17.4055 19.329H15.8111C15.7748 18.0318 14.7118 16.9915 13.4059 16.9915C12.0999 16.9915 11.037 18.0318 11.0006 19.329H4.59374C2.66399 19.329 1.09962 17.7646 1.09962 15.8348L1.09961 7.16599C1.09961 5.23624 2.66398 3.67188 4.59373 3.67188Z" stroke="white" stroke-width="2" stroke-linecap="round" stroke-linejoin="round"/>
</svg>
