<svg width="24" height="24" viewBox="0 0 24 24" fill="none" xmlns="http://www.w3.org/2000/svg">
<path d="M19.418 4.05469H18.8906V3.52734C18.8906 3.23611 18.6545 3 18.3633 3C18.072 3 17.8359 3.23611 17.8359 3.52734V4.05469H15.6914V3.52734C15.6914 3.23611 15.4553 3 15.1641 3C14.8728 3 14.6367 3.23611 14.6367 3.52734V4.05469H12.5273V3.52734C12.5273 3.23611 12.2912 3 12 3C11.7088 3 11.4727 3.23611 11.4727 3.52734V4.05469H9.36328V3.52734C9.36328 3.23611 9.12717 3 8.83594 3C8.5447 3 8.30859 3.23611 8.30859 3.52734V4.05469H6.16406V3.52734C6.16406 3.23611 5.92795 3 5.63672 3C5.34548 3 5.10938 3.23611 5.10938 3.52734V4.05469H4.58203C3.7097 4.05469 3 4.76439 3 5.63672C3 6.28275 3 18.6924 3 19.418C3 20.2903 3.7097 21 4.58203 21H19.418C20.2903 21 21 20.2903 21 19.418C21 18.6922 21 6.28243 21 5.63672C21 4.76439 20.2903 4.05469 19.418 4.05469ZM19.9453 19.418C19.9453 19.7087 19.7087 19.9453 19.418 19.9453H4.58203C4.29125 19.9453 4.05469 19.7087 4.05469 19.418V8.27344H19.9453V19.418ZM19.9453 7.21875H4.05469V5.63672C4.05469 5.34594 4.29125 5.10938 4.58203 5.10938H5.10938V5.63672C5.10938 5.92795 5.34548 6.16406 5.63672 6.16406C5.92795 6.16406 6.16406 5.92795 6.16406 5.63672V5.10938H8.30859V5.63672C8.30859 5.92795 8.5447 6.16406 8.83594 6.16406C9.12717 6.16406 9.36328 5.92795 9.36328 5.63672V5.10938H11.4727V5.63672C11.4727 5.92795 11.7088 6.16406 12 6.16406C12.2912 6.16406 12.5273 5.92795 12.5273 5.63672V5.10938H14.6367V5.63672C14.6367 5.92795 14.8728 6.16406 15.1641 6.16406C15.4553 6.16406 15.6914 5.92795 15.6914 5.63672V5.10938H17.8359V5.63672C17.8359 5.92795 18.072 6.16406 18.3633 6.16406C18.6545 6.16406 18.8906 5.92795 18.8906 5.63672V5.10938H19.418C19.7087 5.10938 19.9453 5.34594 19.9453 5.63672V7.21875Z" fill="#316070" stroke="#316070" stroke-width="0.4"/>
<path d="M16.2188 17.8359H15.6914V16.2539C15.6914 15.3816 14.9817 14.6719 14.1094 14.6719H12.5273V13.4913C13.1411 13.2736 13.582 12.6875 13.582 12C13.582 11.732 13.5055 11.4589 13.4269 11.3216L12.4577 9.62861C12.3637 9.4645 12.1891 9.36328 12 9.36328C11.8109 9.36328 11.6363 9.4645 11.5423 9.62861L10.5731 11.3216C10.4958 11.4567 10.418 11.7284 10.418 12C10.418 12.6875 10.8589 13.2736 11.4727 13.4913V14.6719H9.89062C9.01829 14.6719 8.30859 15.3816 8.30859 16.2539V17.8359H7.78125C7.49002 17.8359 7.25391 18.072 7.25391 18.3633C7.25391 18.6545 7.49002 18.8906 7.78125 18.8906C8.06236 18.8906 15.7801 18.8906 16.2188 18.8906C16.51 18.8906 16.7461 18.6545 16.7461 18.3633C16.7461 18.072 16.51 17.8359 16.2188 17.8359ZM11.5058 11.815L12 10.952L12.4942 11.815C12.5162 11.8738 12.5273 11.9359 12.5273 12C12.5273 12.2908 12.2908 12.5273 12 12.5273C11.7092 12.5273 11.4727 12.2908 11.4727 12C11.4727 11.9359 11.4838 11.8739 11.5058 11.815ZM14.6367 17.8359H9.36328V16.2539C9.36328 15.9631 9.59985 15.7266 9.89062 15.7266H14.1094C14.4002 15.7266 14.6367 15.9631 14.6367 16.2539V17.8359Z" fill="#316070" stroke="#316070" stroke-width="0.4"/>
</svg>
