<svg width="34" height="33" viewBox="0 0 34 33" fill="none" xmlns="http://www.w3.org/2000/svg">
<path d="M15.6944 32.2212C16.0417 32.5604 16.5116 32.75 17.0004 32.75C17.4892 32.75 17.9591 32.5604 18.3064 32.2212C18.654 31.8818 18.8504 31.4201 18.8504 30.9375V2.0625C18.8504 1.57986 18.654 1.11821 18.3064 0.778785C17.9591 0.439554 17.4892 0.25 17.0004 0.25C16.5116 0.25 16.0417 0.439554 15.6944 0.778785C15.3468 1.11821 15.1504 1.57986 15.1504 2.0625V30.9375C15.1504 31.4201 15.3468 31.8818 15.6944 32.2212Z" fill="#7C7C7C" stroke="#7C7C7C" stroke-width="0.5"/>
<path d="M2.5625 18.3484H31.4375C31.9201 18.3484 32.3818 18.1521 32.7212 17.8045C33.0604 17.4571 33.25 16.9872 33.25 16.4984C33.25 16.0097 33.0604 15.5398 32.7212 15.1924C32.3818 14.8448 31.9201 14.6484 31.4375 14.6484H2.5625C2.07986 14.6484 1.61821 14.8448 1.27879 15.1924C0.939554 15.5398 0.75 16.0097 0.75 16.4984C0.75 16.9872 0.939554 17.4571 1.27879 17.8045C1.61821 18.1521 2.07986 18.3484 2.5625 18.3484Z" fill="#7C7C7C" stroke="#7C7C7C" stroke-width="0.5"/>
</svg>
