<svg width="28" height="28" viewBox="0 0 28 28" fill="none" xmlns="http://www.w3.org/2000/svg">
<circle opacity="0.53" cx="14" cy="14" r="14" fill="#030303"/>
<path d="M18.3558 11.1625L15.5278 13.9908L18.3558 16.8189C18.7764 17.2397 18.7764 17.9213 18.3558 18.3421C18.1456 18.5523 17.87 18.6575 17.5946 18.6575C17.3187 18.6575 17.0432 18.5525 16.8331 18.3421L14.0046 15.5137L11.1762 18.3421C10.9661 18.5523 10.6905 18.6575 10.4148 18.6575C10.1393 18.6575 9.86387 18.5524 9.65353 18.3421C9.23289 17.9215 9.23289 17.2398 9.65353 16.8189L12.4814 13.9908L9.65337 11.1625C9.23273 10.7419 9.23273 10.0601 9.65337 9.63946C10.0739 9.21914 10.7553 9.21914 11.1761 9.63946L14.0046 12.4677L16.8328 9.63946C17.2536 9.21914 17.9351 9.21914 18.3556 9.63946C18.7764 10.0601 18.7764 10.7419 18.3558 11.1625Z" fill="white"/>
</svg>
