<svg width="25" height="24" viewBox="0 0 25 24" fill="none" xmlns="http://www.w3.org/2000/svg">
<path d="M18.0781 18.5625C21.0505 18.5625 23.4688 16.1443 23.4688 13.1719C23.4688 10.2811 21.1816 7.91452 18.3218 7.78669C18.4021 6.77344 20.861 3.8542 20.8672 3.84375C20.9105 3.77138 20.9117 3.68124 20.8701 3.60783C20.8285 3.53438 20.7506 3.48895 20.6661 3.48895C19.5517 3.48895 16.1397 6.28561 14.8908 7.59811C13.4906 9.06956 12.6875 10.8449 12.6875 12.4688C12.6875 14.2622 13.179 15.7814 14.1089 16.862C15.0662 17.9745 16.4388 18.5625 18.0781 18.5625Z" fill="#D1D5DB"/>
<path d="M6.89844 18.5625C9.87083 18.5625 12.2891 16.1443 12.2891 13.1719C12.2891 10.2811 10.0019 7.91452 7.14209 7.78669C7.22239 6.77344 9.68127 3.8542 9.6875 3.84375C9.73086 3.77138 9.73199 3.68124 9.69041 3.60783C9.64878 3.53438 9.57088 3.48895 9.48645 3.48895C8.372 3.48895 4.95997 6.28561 3.71108 7.59811C2.31087 9.06956 1.50781 10.8449 1.50781 12.4688C1.50781 14.2622 1.99934 15.7814 2.9292 16.862C3.88653 17.9745 5.25908 18.5625 6.89844 18.5625Z" fill="#D1D5DB"/>
</svg>
