<svg width="24" height="24" viewBox="0 0 24 24" fill="none" xmlns="http://www.w3.org/2000/svg">
<path d="M13.8049 7.52267C13.8753 7.0286 13.8433 6.52533 13.7109 6.04416C13.5785 5.56299 13.3485 5.1142 13.0352 4.7257C12.722 4.3372 12.3321 4.0173 11.89 3.78589C11.4478 3.55448 10.9628 3.41651 10.465 3.38055C9.96723 3.34459 9.46739 3.41142 8.99656 3.57688C8.52573 3.74234 8.09397 4.00289 7.72813 4.34234C7.36229 4.68178 7.07019 5.09286 6.87 5.55C6.66981 6.00715 6.5658 6.50059 6.56445 6.99965C6.56445 7.43171 6.58719 7.90926 7.05109 7.90926C7.11702 7.91 7.18232 7.89641 7.24246 7.86941C7.30261 7.84242 7.35617 7.80266 7.39944 7.75291C7.4427 7.70316 7.47463 7.6446 7.49301 7.58129C7.51139 7.51797 7.51579 7.45142 7.50589 7.38623C7.45075 6.99926 7.47939 6.60496 7.58987 6.23002C7.70035 5.85508 7.89009 5.50824 8.14624 5.213C8.4024 4.91775 8.719 4.68098 9.07461 4.51872C9.43022 4.35645 9.81653 4.27248 10.2074 4.27248C10.5983 4.27248 10.9846 4.35645 11.3402 4.51872C11.6958 4.68098 12.0124 4.91775 12.2686 5.213C12.5247 5.50824 12.7145 5.85508 12.825 6.23002C12.9354 6.60496 12.9641 6.99926 12.9089 7.38623C12.9015 7.49989 12.9369 7.61222 13.0082 7.70101C13.0796 7.78979 13.1817 7.84857 13.2943 7.86572C13.4069 7.88287 13.5218 7.85714 13.6164 7.79362C13.7109 7.7301 13.7782 7.63341 13.8049 7.52267Z" fill="#316070" stroke="#1C7C9D" stroke-width="0.2"/>
<path d="M10.2034 1.99645C10.9669 1.9965 11.7203 2.1713 12.4058 2.50745C13.0913 2.84361 13.6908 3.3322 14.1583 3.93581C14.6258 4.53942 14.949 5.24202 15.103 5.98981C15.2571 6.7376 15.2379 7.51073 15.0471 8.24997C15.0169 8.36698 15.0345 8.49116 15.0959 8.59522C15.1573 8.69928 15.2575 8.77468 15.3745 8.80483C15.4915 8.83499 15.6157 8.81743 15.7198 8.75602C15.8238 8.69461 15.8992 8.59438 15.9294 8.47737C16.1541 7.60391 16.176 6.69061 15.9935 5.80737C15.8109 4.92414 15.4287 4.09438 14.876 3.38159C14.3234 2.66881 13.6151 2.0919 12.8052 1.69502C11.9953 1.29813 11.1053 1.0918 10.2034 1.0918C9.30153 1.0918 8.41157 1.29813 7.60168 1.69502C6.79179 2.0919 6.08343 2.66881 5.53082 3.38159C4.97821 4.09438 4.59599 4.92414 4.41342 5.80737C4.23085 6.69061 4.25276 7.60391 4.47748 8.47737C4.50764 8.59438 4.58304 8.69461 4.68709 8.75602C4.73862 8.78642 4.79563 8.80639 4.85486 8.81476C4.9141 8.82314 4.97441 8.81976 5.03234 8.80483C5.09028 8.7899 5.1447 8.7637 5.19251 8.72774C5.24032 8.69177 5.28058 8.64674 5.31099 8.59522C5.34139 8.5437 5.36135 8.48669 5.36973 8.42745C5.3781 8.36821 5.37473 8.30791 5.3598 8.24997C5.16893 7.51073 5.14978 6.7376 5.30384 5.98981C5.4579 5.24202 5.78106 4.53942 6.24858 3.93581C6.71611 3.3322 7.31558 2.84361 8.00109 2.50745C8.68659 2.1713 9.43994 1.9965 10.2034 1.99645Z" fill="#316070" stroke="#1C7C9D" stroke-width="0.2"/>
<path d="M17.4801 11.8058C17.4453 11.4964 17.3317 11.2011 17.1501 10.9482C16.9685 10.6953 16.725 10.4932 16.4429 10.3613C16.1609 10.2294 15.8497 10.1721 15.5392 10.1949C15.2287 10.2177 14.9292 10.3198 14.6694 10.4914C14.5806 10.2369 14.4362 10.0053 14.2469 9.81339C14.0575 9.62148 13.8279 9.47405 13.5746 9.38178C13.3212 9.28951 13.0506 9.25469 12.7822 9.27985C12.5137 9.30501 12.2543 9.38951 12.0225 9.52725V7.53067C12.0378 7.1687 11.9446 6.81041 11.755 6.50172C11.5653 6.19303 11.2879 5.94799 10.9581 5.798C10.6283 5.64801 10.2612 5.5999 9.90393 5.65984C9.54663 5.71978 9.21537 5.88503 8.95258 6.13443C8.19761 6.84847 8.38408 7.19411 8.38408 12.4562C7.15612 11.5466 5.65527 12.0923 5.65527 13.3658V17.0042C5.65527 18.5723 6.27819 20.0761 7.38698 21.1849C8.49578 22.2937 9.99962 22.9166 11.5677 22.9166H14.2965C15.8646 22.9166 17.3684 22.2937 18.4772 21.1849C19.586 20.0761 20.2089 18.5723 20.2089 17.0042V13.4431C20.2201 13.1185 20.1441 12.7969 19.989 12.5116C19.8339 12.2263 19.6052 11.9878 19.3268 11.8207C19.0483 11.6536 18.7302 11.5641 18.4055 11.5615C18.0807 11.5589 17.7612 11.6432 17.4801 11.8058ZM19.2993 17.0042C19.2993 17.6612 19.1699 18.3117 18.9185 18.9187C18.6671 19.5256 18.2986 20.0772 17.834 20.5417C17.3695 21.0063 16.818 21.3748 16.211 21.6262C15.604 21.8776 14.9535 22.007 14.2965 22.007H11.5677C10.2409 22.007 8.96838 21.4799 8.03017 20.5417C7.09196 19.6035 6.56488 18.331 6.56488 17.0042V13.3658C6.56488 12.729 7.47448 12.8064 7.97021 13.293C8.46595 13.7796 8.38408 14.2117 8.38408 17.0042C8.38408 17.1248 8.432 17.2405 8.51729 17.3258C8.60258 17.4111 8.71826 17.459 8.83888 17.459C8.95951 17.459 9.07519 17.4111 9.16048 17.3258C9.24577 17.2405 9.29369 17.1248 9.29369 17.0042V7.45335C9.2935 7.32957 9.31858 7.20706 9.36738 7.09331C9.41619 6.97956 9.4877 6.87696 9.57754 6.79181C9.66738 6.70666 9.77365 6.64074 9.88984 6.59808C10.006 6.55543 10.1297 6.53694 10.2533 6.54375C10.4941 6.57097 10.7159 6.68741 10.875 6.8701C11.0341 7.05279 11.119 7.28847 11.1129 7.53067V14.2754C11.1129 14.396 11.1608 14.5117 11.2461 14.597C11.3314 14.6823 11.4471 14.7302 11.5677 14.7302C11.6883 14.7302 11.804 14.6823 11.8893 14.597C11.9746 14.5117 12.0225 14.396 12.0225 14.2754V11.0918C12.0225 10.8505 12.1183 10.6192 12.2889 10.4486C12.4595 10.278 12.6909 10.1822 12.9321 10.1822C13.1733 10.1822 13.4047 10.278 13.5753 10.4486C13.7459 10.6192 13.8417 10.8505 13.8417 11.0918V14.2754C13.8417 14.396 13.8896 14.5117 13.9749 14.597C14.0602 14.6823 14.1759 14.7302 14.2965 14.7302C14.4171 14.7302 14.5328 14.6823 14.6181 14.597C14.7034 14.5117 14.7513 14.396 14.7513 14.2754V12.0014C14.7513 11.7601 14.8471 11.5288 15.0177 11.3582C15.1883 11.1876 15.4197 11.0918 15.6609 11.0918C15.9021 11.0918 16.1335 11.1876 16.3041 11.3582C16.4747 11.5288 16.5705 11.7601 16.5705 12.0014V14.2754C16.5705 14.396 16.6184 14.5117 16.7037 14.597C16.789 14.6823 16.9047 14.7302 17.0253 14.7302C17.1459 14.7302 17.2616 14.6823 17.3469 14.597C17.4322 14.5117 17.4801 14.396 17.4801 14.2754C17.4801 13.2885 17.421 13.0292 17.7621 12.7063C17.8956 12.5776 18.0653 12.4927 18.2484 12.4632C18.4315 12.4336 18.6193 12.4607 18.7866 12.5409C18.9538 12.6211 19.0926 12.7504 19.1842 12.9117C19.2759 13.0729 19.316 13.2584 19.2993 13.4431V17.0042Z" fill="#316070" stroke="#1C7C9D" stroke-width="0.2"/>
</svg>
