<svg width="24" height="24" viewBox="0 0 24 24" fill="none" xmlns="http://www.w3.org/2000/svg">
<rect width="24" height="24" rx="12" fill="#7C7C7C"/>
<g clip-path="url(#clip0_2995_50921)">
<path d="M8.43478 16.347C8.21903 16.3595 8.00685 16.2878 7.84298 16.1469C7.51979 15.8218 7.51979 15.2967 7.84298 14.9716L14.9197 7.89485C15.2559 7.5803 15.7833 7.59779 16.0979 7.93393C16.3823 8.23791 16.3989 8.70512 16.1367 9.02848L9.01825 16.1469C8.85649 16.2858 8.64771 16.3574 8.43478 16.347Z" fill="white"/>
<path d="M15.5033 16.3466C15.2846 16.3457 15.075 16.2589 14.9198 16.1049L7.84301 9.02808C7.54359 8.67843 7.5843 8.15222 7.93395 7.85278C8.24602 7.58553 8.70626 7.58553 9.0183 7.85278L16.1368 14.9296C16.4728 15.2442 16.4902 15.7717 16.1756 16.1077C16.1631 16.1211 16.1501 16.134 16.1368 16.1466C15.9625 16.2981 15.7331 16.3706 15.5033 16.3466Z" fill="white"/>
</g>
<defs>
<clipPath id="clip0_2995_50921">
<rect width="8.8" height="8.8" fill="white" transform="translate(7.59961 7.59961)"/>
</clipPath>
</defs>
</svg>
