<svg width="24" height="24" viewBox="0 0 24 24" fill="none" xmlns="http://www.w3.org/2000/svg">
<path d="M22.9014 18.5289L21.6584 12.4938C21.6396 12.4022 21.5864 12.3217 21.5105 12.2709C21.4347 12.22 21.3426 12.2023 21.254 12.2218L18.4457 12.8449L17.8887 12.9683V2.07716C17.8887 1.53362 17.463 1.0918 16.9393 1.0918H7.06043C6.5367 1.0918 6.11098 1.53362 6.11098 2.07716V12.9683L5.55529 12.8454L2.74573 12.2222C2.56163 12.1816 2.38095 12.3032 2.34132 12.4942L1.09826 18.5289C1.07951 18.6205 1.09655 18.7164 1.14556 18.7952C1.19457 18.8739 1.27212 18.9292 1.36033 18.9486L4.1699 19.5718H4.17032C4.18055 19.574 4.19078 19.5758 4.201 19.5766C4.20271 19.5766 4.20441 19.5771 4.20612 19.5775C4.20825 19.5775 4.20995 19.5775 4.21208 19.578C4.22189 19.5789 4.23169 19.5797 4.24149 19.5797H4.24234C4.47885 19.5802 4.96678 19.7027 5.35287 19.8203C5.33327 20.1454 5.43639 20.4585 5.64265 20.7009C5.8489 20.9441 6.13527 21.0896 6.44891 21.11C6.47405 21.1117 6.4992 21.1126 6.52434 21.1126C6.81028 21.1126 7.08259 21.0065 7.29779 20.8092L7.33486 20.7752C7.38259 20.9423 7.46484 21.0976 7.57862 21.2316C7.78487 21.4748 8.07124 21.6199 8.38488 21.6402C8.41002 21.642 8.43516 21.6429 8.46031 21.6429C8.60733 21.6429 8.75051 21.6146 8.88432 21.5606C8.92608 21.7539 9.01344 21.9397 9.14853 22.0989C9.37992 22.3709 9.70337 22.5093 10.0285 22.5093C10.3038 22.5093 10.5808 22.4093 10.8028 22.2063H10.8032L10.9844 22.0405C11.0312 22.2046 11.1122 22.3611 11.2281 22.4982C11.4591 22.7707 11.7825 22.91 12.1077 22.91C12.3834 22.91 12.6604 22.81 12.8837 22.6061L13.1862 22.3284C13.2173 22.3001 13.2463 22.2705 13.2736 22.2395C14.7216 22.0025 16.2536 21.2648 17.9497 19.9897L19.8307 19.5727H19.8311L22.6394 18.9495C22.8235 18.9075 22.9407 18.72 22.9014 18.5289ZM17.9428 19.2671C17.0454 18.1552 15.8445 17.5285 14.6816 16.9213C13.3333 16.2176 12.0599 15.5525 11.3768 14.1965C11.3265 14.097 11.2336 14.028 11.1267 14.0108C11.0193 13.9935 10.9111 14.0307 10.8343 14.1098C9.98505 14.989 8.87026 15.4118 8.20846 15.3756C8.02308 15.3654 7.93743 15.3203 7.91484 15.2995C7.91569 15.2469 7.9843 15.0602 8.30221 14.7551L10.4163 12.7092C12.8913 12.216 15.0404 12.5712 16.9832 13.7936C17.0573 13.8405 17.146 13.856 17.2308 13.8369L18.2556 13.6101L19.3564 18.9539L17.9428 19.2671ZM7.06043 1.79853H16.9393C17.0871 1.79853 17.2073 1.92325 17.2073 2.07672V13.1099C15.1213 11.8406 12.8232 11.489 10.1875 12.0352C10.187 12.0352 10.187 12.0352 10.1866 12.0356C10.1862 12.0356 10.1858 12.0356 10.1853 12.0356C9.23461 12.2395 8.32905 12.534 7.45333 12.8184C7.2262 12.8923 7.00844 12.963 6.79196 13.0316V2.07716C6.79238 1.92635 6.91511 1.79853 7.06043 1.79853ZM2.93621 12.9874L5.07971 13.4628L3.97898 18.8062L1.83548 18.3308L2.93621 12.9874ZM6.84693 20.2785C6.74934 20.3678 6.62363 20.4125 6.49152 20.4037C6.35985 20.3953 6.2401 20.3347 6.15359 20.2325C6.06751 20.1312 6.02447 20.0003 6.03299 19.8637C6.04109 19.727 6.09947 19.6023 6.19791 19.513L7.29139 18.5108C7.38515 18.4254 7.50191 18.3834 7.61782 18.3834C7.75419 18.3834 7.8897 18.4413 7.98601 18.5546C8.16499 18.7664 8.14539 19.0901 7.94169 19.2759L6.84693 20.2785ZM8.42749 20.9335C8.29581 20.9251 8.17607 20.8645 8.08999 20.7628C8.00391 20.6615 7.96087 20.5306 7.96939 20.3939C7.97749 20.2573 8.03587 20.133 8.13388 20.0432L9.22907 19.0406C9.32239 18.9553 9.4383 18.9137 9.55379 18.9137C9.69016 18.9137 9.82567 18.9716 9.9224 19.0853C10.0085 19.187 10.0515 19.3179 10.043 19.455C10.0349 19.5917 9.97652 19.716 9.87894 19.8053L8.78332 20.8083C8.68574 20.8977 8.5596 20.9423 8.42749 20.9335ZM10.3528 21.6747C10.1495 21.8605 9.83845 21.8401 9.65947 21.6301C9.57339 21.5283 9.53035 21.3974 9.53887 21.2603C9.54697 21.1237 9.60535 20.9994 9.70294 20.9101L10.7981 19.9075C10.8915 19.8221 11.0078 19.7801 11.1233 19.7801C11.2596 19.7801 11.3952 19.8385 11.4919 19.9526C11.578 20.0538 11.621 20.1848 11.6125 20.3214C11.6044 20.4581 11.546 20.5828 11.448 20.6721L10.3528 21.6747ZM12.4332 22.0745C12.2295 22.2607 11.9185 22.2404 11.7399 22.0299C11.5605 21.8185 11.5797 21.4947 11.7838 21.3085L12.0864 21.0308C12.2905 20.8455 12.602 20.8658 12.781 21.0768C12.96 21.2878 12.9399 21.6106 12.7362 21.7968L12.4332 22.0745ZM13.2919 20.6093C13.0324 20.3037 12.6565 20.1657 12.2922 20.2038C12.2747 19.9375 12.175 19.6868 12.0028 19.4846C11.6692 19.0915 11.1433 18.9756 10.6971 19.1556C10.6549 18.9579 10.5655 18.7735 10.4333 18.6178C10.0059 18.1158 9.26359 18.0672 8.77863 18.5103L8.74028 18.5453C8.69341 18.3812 8.61287 18.2242 8.49695 18.0875C8.06996 17.586 7.32719 17.5374 6.84096 17.9801L5.74705 18.9827C5.6891 19.0358 5.63711 19.0937 5.59108 19.156C5.32901 19.0747 4.96849 18.9743 4.65314 18.9172L5.7462 13.6101L6.5742 13.7932C6.59763 13.7985 6.6215 13.8011 6.64536 13.8011C6.67818 13.8011 6.71099 13.7963 6.74295 13.7865C7.04551 13.6928 7.3566 13.5915 7.65788 13.4937C8.11769 13.3443 8.58602 13.1926 9.06245 13.0533L7.83856 14.2376C7.36554 14.6914 7.16824 15.1062 7.25262 15.4702C7.28841 15.625 7.41072 15.9032 7.82791 16.0261C8.54937 16.238 9.90237 15.866 10.9946 14.9161C11.8094 16.2132 13.1125 16.8934 14.376 17.5533C15.4277 18.1026 16.5123 18.6687 17.313 19.5926C15.9643 20.5739 14.7365 21.1882 13.5834 21.4576C13.5932 21.1568 13.4977 20.8521 13.2919 20.6093ZM20.0216 18.8062L18.9208 13.4623L21.0631 12.9869L22.1638 18.3308L20.0216 18.8062ZM9.91601 7.66206C11.3086 7.66206 12.4418 6.48608 12.4418 5.04077C12.4418 3.59545 11.3086 2.41947 9.91601 2.41947C8.52338 2.41947 7.39026 3.59545 7.39026 5.04077C7.39026 6.48608 8.52338 7.66206 9.91601 7.66206ZM9.91601 3.12621C10.9332 3.12621 11.7604 3.98508 11.7604 5.04077C11.7604 6.09645 10.9328 6.95488 9.91601 6.95488C8.89881 6.95488 8.07124 6.09601 8.07124 5.04077C8.07166 3.98508 8.89881 3.12621 9.91601 3.12621ZM13.0448 2.77284C13.0448 2.57736 13.1973 2.41947 13.3852 2.41947H16.2613C16.4496 2.41947 16.6018 2.5778 16.6018 2.77284C16.6018 2.96788 16.4492 3.12621 16.2613 3.12621H13.3852C13.1973 3.12621 13.0448 2.96788 13.0448 2.77284ZM13.0448 4.7387C13.0448 4.54322 13.1973 4.38533 13.3852 4.38533H16.2613C16.4496 4.38533 16.6018 4.54366 16.6018 4.7387C16.6018 4.93374 16.4492 5.09207 16.2613 5.09207H13.3852C13.1973 5.09207 13.0448 4.93374 13.0448 4.7387ZM13.0448 6.70412C13.0448 6.50864 13.1973 6.35075 13.3852 6.35075H16.2613C16.4496 6.35075 16.6018 6.50908 16.6018 6.70412C16.6018 6.89916 16.4492 7.05749 16.2613 7.05749H13.3852C13.1973 7.05793 13.0448 6.8996 13.0448 6.70412ZM7.39026 8.66865C7.39026 8.47317 7.54282 8.31529 7.73075 8.31529H16.2613C16.4492 8.31529 16.6018 8.47362 16.6018 8.66865C16.6018 8.86369 16.4492 9.02202 16.2613 9.02202H7.73075C7.54282 9.02246 7.39026 8.86413 7.39026 8.66865ZM7.39026 10.6345C7.39026 10.439 7.54282 10.2811 7.73075 10.2811H16.2613C16.4492 10.2811 16.6018 10.4395 16.6018 10.6345C16.6018 10.8296 16.4492 10.9879 16.2613 10.9879H7.73075C7.54282 10.9879 7.39026 10.8296 7.39026 10.6345ZM8.68105 4.97222C8.54809 4.83423 8.54809 4.61 8.68147 4.47246C8.81443 4.33447 9.03049 4.33447 9.16302 4.4729L9.78817 5.12259L10.6682 4.20931C10.8011 4.07133 11.0167 4.07133 11.1497 4.20931C11.2827 4.3473 11.2827 4.57108 11.1497 4.70907L10.0285 5.87266C9.96459 5.939 9.87808 5.97615 9.78774 5.97615C9.6974 5.97615 9.61089 5.939 9.54697 5.87222L8.68105 4.97222Z" fill="#316070" stroke="#316070" stroke-width="0.1"/>
</svg>
