<svg width="24" height="24" viewBox="0 0 24 24" fill="none" xmlns="http://www.w3.org/2000/svg">
<path d="M4.38379 14.0762V20.3071C4.38379 20.4907 4.45673 20.6669 4.58657 20.7967C4.7164 20.9265 4.8925 20.9995 5.07612 20.9995H18.9227C19.1063 20.9995 19.2824 20.9265 19.4123 20.7967C19.5421 20.6669 19.615 20.4907 19.615 20.3071V14.0762" stroke="#316070" stroke-width="2" stroke-linecap="round" stroke-linejoin="round"/>
<path d="M20.3073 10.6156H3.69135C3.50774 10.6156 3.33164 10.5427 3.2018 10.4129C3.07196 10.283 2.99902 10.1069 2.99902 9.92332V7.154L4.68831 3.76159C4.80442 3.53114 4.98264 3.33772 5.20283 3.20315C5.42303 3.06859 5.67645 2.99824 5.9345 3.00003H18.0641C18.3222 2.99824 18.5756 3.06859 18.7958 3.20315C19.0159 3.33772 19.1941 3.53114 19.3103 3.76159L20.9996 7.154V9.92332C20.9996 10.1069 20.9266 10.283 20.7969 10.4129C20.667 10.5427 20.4909 10.6156 20.3073 10.6156Z" stroke="#316070" stroke-width="2" stroke-linecap="round" stroke-linejoin="round"/>
<path d="M13.3838 14.0762V20.9995" stroke="#316070" stroke-width="2" stroke-linecap="round" stroke-linejoin="round"/>
<path d="M4.38379 16.1543H13.3841" stroke="#316070" stroke-width="2" stroke-linecap="round" stroke-linejoin="round"/>
<path d="M2.99902 7.15234H20.9996" stroke="#316070" stroke-width="2" stroke-linecap="round" stroke-linejoin="round"/>
</svg>
