<svg width="24" height="24" viewBox="0 0 24 24" fill="none" xmlns="http://www.w3.org/2000/svg">
<path d="M19.0613 4.93506C17.9443 3.81813 16.5646 2.96401 15.0629 2.48532C13.5611 1.99725 11.9467 1.87524 10.3886 2.12866C8.36128 2.46655 6.51224 3.40515 5.03865 4.8412C3.56505 6.27725 2.57014 8.09813 2.17593 10.1161C1.77233 12.1998 2.04453 14.321 2.95497 16.2358L3.0019 16.3296L2.41058 19.2862C2.34488 19.5959 2.36365 19.9244 2.45751 20.2342C2.55137 20.5439 2.72032 20.8255 2.94558 21.0508C3.17084 21.276 3.45242 21.445 3.76216 21.5388C4.07189 21.6327 4.4004 21.6515 4.71014 21.5858L7.65733 20.9944L7.75119 21.0414C9.06523 21.6608 10.5294 21.9893 11.9843 21.9893C12.6037 21.9893 13.2607 21.933 13.8802 21.811C15.8982 21.4168 17.7191 20.4219 19.1551 18.9483C20.5912 17.4747 21.5298 15.6257 21.8677 13.5889C22.1211 12.0308 21.9991 10.4165 21.511 8.91471C21.0323 7.42234 20.1782 6.0426 19.0613 4.93506ZM20.6569 13.42C20.4316 14.7809 19.8872 16.0762 19.08 17.1931C18.2635 18.3007 17.1935 19.2205 15.9639 19.84C14.7437 20.4594 13.3734 20.7786 12.003 20.7786C11.9936 20.7786 11.9936 20.7786 11.9843 20.7786C10.6045 20.7786 9.23417 20.4407 8.014 19.8212C7.89198 19.7555 7.75119 19.7367 7.61979 19.7649L4.4661 20.3937C4.34409 20.4125 4.22207 20.4125 4.10944 20.375C3.99681 20.3374 3.88418 20.2717 3.7997 20.1872C3.71523 20.1028 3.64953 19.9995 3.62137 19.8869C3.58382 19.7649 3.58382 19.6429 3.6026 19.5302L4.23146 16.3765C4.25961 16.2451 4.24084 16.1044 4.17514 15.9823C3.54628 14.7622 3.21777 13.3824 3.21777 12.0121C3.21777 10.6417 3.54628 9.26199 4.16575 8.03243C4.78523 6.80287 5.70505 5.73287 6.81259 4.91629C7.91075 4.09971 9.2154 3.55532 10.5764 3.33006C11.9467 3.1048 13.364 3.21743 14.6874 3.6398C16.0108 4.06217 17.2216 4.81304 18.2072 5.78918C19.1833 6.77471 19.9342 7.9855 20.3565 9.30892C20.7695 10.6323 20.8821 12.0496 20.6569 13.42Z" fill="#316070"/>
<path d="M12.9326 15.1481H12.6041V11.0652C12.6041 10.9056 12.5384 10.746 12.4257 10.6334C12.3131 10.5208 12.1536 10.4551 11.994 10.4551H11.0554C10.8958 10.4551 10.7363 10.5208 10.6236 10.6334C10.511 10.746 10.4453 10.9056 10.4453 11.0652C10.4453 11.2247 10.511 11.3843 10.6236 11.4969C10.7363 11.6096 10.8958 11.6753 11.0554 11.6753H11.3839V15.7581C11.3839 15.9177 11.4496 16.0773 11.5622 16.1899C11.6749 16.3025 11.8344 16.3682 11.994 16.3682H12.9326C13.0922 16.3682 13.2517 16.3025 13.3643 16.1899C13.477 16.0773 13.5427 15.9177 13.5427 15.7581C13.5427 15.5986 13.477 15.439 13.3643 15.3264C13.2517 15.2138 13.0922 15.1481 12.9326 15.1481Z" fill="#316070"/>
<path d="M11.9939 8.85885C12.3308 8.85885 12.604 8.5857 12.604 8.24876C12.604 7.91182 12.3308 7.63867 11.9939 7.63867C11.6569 7.63867 11.3838 7.91182 11.3838 8.24876C11.3838 8.5857 11.6569 8.85885 11.9939 8.85885Z" fill="#316070"/>
</svg>
