<svg width="24" height="24" viewBox="0 0 24 24" fill="none" xmlns="http://www.w3.org/2000/svg">
<g clip-path="url(#clip0_5121_74294)">
<path d="M17.4545 22.9126C17.3636 22.9126 17.2727 22.8944 17.1873 22.858C16.9764 22.768 12 20.6008 12 16.1435V12.4908C12 12.199 12.1855 11.9399 12.4627 11.8453L17.2355 10.2217C17.3773 10.1735 17.5318 10.1735 17.6736 10.2217L22.4464 11.8453C22.7236 11.9399 22.9091 12.199 22.9091 12.4908V16.1435C22.9091 20.6008 17.9327 22.768 17.7218 22.859C17.6364 22.8944 17.5455 22.9126 17.4545 22.9126ZM13.3636 12.979V16.1426C13.3636 19.1726 16.5055 20.9944 17.4545 21.4744C18.4036 20.9944 21.5455 19.1726 21.5455 16.1426V12.979L17.4545 11.5871L13.3636 12.979Z" fill="#316070" stroke="#EFFFFE" stroke-width="0.2"/>
<path d="M17.2273 18.8163C17.0473 18.8163 16.8728 18.7454 16.7455 18.6163L14.9273 16.7982C14.6609 16.5318 14.6609 16.1 14.9273 15.8336C15.1937 15.5673 15.6255 15.5673 15.8919 15.8336L17.1546 17.0963L19.4091 14.0891C19.6328 13.7882 20.0619 13.7263 20.3637 13.9536C20.6646 14.1791 20.7255 14.6063 20.4991 14.9082L17.7719 18.5445C17.6537 18.7027 17.4728 18.8009 17.2746 18.8154C17.2591 18.8154 17.2437 18.8163 17.2273 18.8163Z" fill="#316070" stroke="#EFFFFE" stroke-width="0.2"/>
<path d="M10.7181 20.1827H3.59082C2.21173 20.1827 1.09082 19.0618 1.09082 17.6827V3.5918C1.09082 2.21271 2.21173 1.0918 3.59082 1.0918H14.0454C15.4245 1.0918 16.5454 2.21271 16.5454 3.5918V8.52816C16.5454 8.90452 16.2399 9.20998 15.8635 9.20998C15.4872 9.20998 15.1817 8.90452 15.1817 8.52816V3.5918C15.1817 2.96543 14.6717 2.45543 14.0454 2.45543H3.59082C2.96446 2.45543 2.45446 2.96543 2.45446 3.5918V17.6827C2.45446 18.3091 2.96446 18.8191 3.59082 18.8191H10.7181C11.0945 18.8191 11.3999 19.1245 11.3999 19.5009C11.3999 19.8773 11.0945 20.1827 10.7181 20.1827Z" fill="#316070" stroke="#EFFFFE" stroke-width="0.2"/>
<path d="M13.1365 9.72496H4.50018C4.12381 9.72496 3.81836 9.41951 3.81836 9.04315C3.81836 8.66678 4.12381 8.36133 4.50018 8.36133H13.1365C13.5129 8.36133 13.8184 8.66678 13.8184 9.04315C13.8184 9.41951 13.5129 9.72496 13.1365 9.72496Z" fill="#316070" stroke="#EFFFFE" stroke-width="0.2"/>
<path d="M9.50018 13.3636H4.50018C4.12381 13.3636 3.81836 13.0582 3.81836 12.6818C3.81836 12.3055 4.12381 12 4.50018 12H9.50018C9.87654 12 10.182 12.3055 10.182 12.6818C10.182 13.0582 9.87654 13.3636 9.50018 13.3636Z" fill="#316070" stroke="#EFFFFE" stroke-width="0.2"/>
<path d="M8.59109 6.09411H4.50018C4.12381 6.09411 3.81836 5.78865 3.81836 5.41229C3.81836 5.03592 4.12381 4.73047 4.50018 4.73047H8.59109C8.96745 4.73047 9.2729 5.03592 9.2729 5.41229C9.2729 5.78865 8.96745 6.09411 8.59109 6.09411Z" fill="#316070" stroke="#EFFFFE" stroke-width="0.2"/>
</g>
<defs>
<clipPath id="clip0_5121_74294">
<rect width="24" height="24" fill="white"/>
</clipPath>
</defs>
</svg>
