<svg width="24" height="24" viewBox="0 0 24 24" fill="none" xmlns="http://www.w3.org/2000/svg">
<mask id="mask0_5082_41355" style="mask-type:luminance" maskUnits="userSpaceOnUse" x="2" y="2" width="20" height="20">
<path d="M21.4 21.4V2.6H2.6V21.4H21.4Z" fill="white" stroke="white" stroke-width="1.2"/>
</mask>
<g mask="url(#mask0_5082_41355)">
<path d="M13.8828 4.70629C14.5735 4.88453 15.2259 5.15816 15.825 5.51246C15.825 5.51246 16.1136 5.22375 16.4378 4.89957C16.6732 4.66394 16.9926 4.5318 17.3255 4.5318C17.6581 4.5318 17.9776 4.66394 18.213 4.89957C18.4985 5.18515 18.8148 5.50144 19.1004 5.78703C19.3361 6.02238 19.4682 6.34184 19.4682 6.67445C19.4682 7.00742 19.3361 7.32683 19.1004 7.56219C18.7762 7.88637 18.4875 8.17504 18.4875 8.17504C18.8418 8.7741 19.1154 9.42648 19.2937 10.1172H20.1588C20.852 10.1172 21.4141 10.6792 21.4141 11.3724V12.6276C21.4141 13.3208 20.852 13.8828 20.1588 13.8828H19.2937C19.1154 14.5735 18.8418 15.2259 18.4875 15.8249C18.4875 15.8249 18.7762 16.1136 19.1004 16.4378C19.3361 16.6732 19.4682 16.9926 19.4682 17.3255C19.4682 17.6582 19.3361 17.9776 19.1004 18.213C18.8148 18.4985 18.4985 18.8148 18.213 19.1004C17.9776 19.3361 17.6581 19.4682 17.3255 19.4682C16.9926 19.4682 16.6732 19.3361 16.4378 19.1004C16.1136 18.7762 15.825 18.4875 15.825 18.4875C15.2259 18.8418 14.5735 19.1155 13.8828 19.2937V20.1588C13.8828 20.852 13.3208 21.4141 12.6276 21.4141H11.3724C10.6792 21.4141 10.1172 20.852 10.1172 20.1588V19.2937C9.42652 19.1155 8.7741 18.8418 8.17504 18.4875C8.17504 18.4875 7.88637 18.7762 7.56219 19.1004C7.32684 19.3361 7.00738 19.4682 6.67445 19.4682C6.34184 19.4682 6.02234 19.3361 5.78703 19.1004C5.50149 18.8148 5.18516 18.4985 4.89957 18.213C4.66395 17.9776 4.5318 17.6582 4.5318 17.3255C4.5318 16.9926 4.66395 16.6732 4.89957 16.4378C5.22375 16.1136 5.51246 15.8249 5.51246 15.8249C5.15816 15.2259 4.88457 14.5735 4.70629 13.8828H3.84117C3.14797 13.8828 2.58594 13.3208 2.58594 12.6276V11.3724C2.58594 10.6792 3.14797 10.1172 3.84117 10.1172H4.70629C4.88457 9.42648 5.15816 8.7741 5.51246 8.17504C5.51246 8.17504 5.22375 7.88637 4.89957 7.56219C4.66395 7.32683 4.5318 7.00742 4.5318 6.67445C4.5318 6.34184 4.66395 6.02238 4.89957 5.78703C5.18516 5.50144 5.50149 5.18515 5.78703 4.89957C6.02234 4.66394 6.34184 4.5318 6.67445 4.5318C7.00738 4.5318 7.32684 4.66394 7.56219 4.89957C7.88637 5.22375 8.17504 5.51246 8.17504 5.51246C8.7741 5.15816 9.42652 4.88453 10.1172 4.70629V3.84113C10.1172 3.14793 10.6792 2.58594 11.3724 2.58594H12.6276C13.3208 2.58594 13.8828 3.14793 13.8828 3.84113V4.70629Z" stroke="#316070" stroke-width="1.2" stroke-miterlimit="10" stroke-linecap="round" stroke-linejoin="round"/>
<path d="M11.998 8.23437C14.0764 8.23437 15.7637 9.92168 15.7637 12C15.7637 14.0783 14.0764 15.7656 11.998 15.7656C9.91973 15.7656 8.23242 14.0783 8.23242 12C8.23242 9.92168 9.91973 8.23437 11.998 8.23437Z" stroke="#316070" stroke-width="1.2" stroke-miterlimit="10" stroke-linecap="round" stroke-linejoin="round"/>
</g>
</svg>
