<svg width="24" height="24" viewBox="0 0 24 24" fill="none" xmlns="http://www.w3.org/2000/svg">
<path d="M15.6766 19.84H2.35488C1.85933 19.84 1.41881 19.5908 1.17487 19.1756C0.931035 18.7564 0.942821 18.2656 1.20633 17.8617L2.13062 16.4384C2.47674 15.9023 2.66165 15.2831 2.66165 14.6527V9.48791C2.66165 7.86067 3.32243 6.32789 4.51812 5.17259C5.171 4.54205 5.97733 4.05133 6.85047 3.75304C6.86626 3.74546 6.88193 3.73788 6.90161 3.73041C8.25075 3.27736 9.77678 3.27736 11.1259 3.73041C11.1417 3.73788 11.1613 3.74172 11.1771 3.75304C11.6373 3.91163 12.0896 4.12679 12.5143 4.39488C12.6953 4.50812 12.7464 4.74216 12.6284 4.91581C12.5104 5.08956 12.2666 5.13865 12.0857 5.02531C11.6962 4.78368 11.2871 4.58741 10.8703 4.44771C10.8545 4.44013 10.8348 4.4364 10.8191 4.42882C9.6667 4.05133 8.36483 4.05133 7.21238 4.42882C7.19659 4.4364 7.18092 4.44398 7.16513 4.44771C6.38249 4.70823 5.66267 5.14238 5.08061 5.70493C4.03046 6.71668 3.45218 8.06078 3.45218 9.48791V14.6488C3.45218 15.419 3.22803 16.1779 2.8033 16.8348L1.8789 18.2581C1.76882 18.4281 1.76493 18.6319 1.86711 18.8093C1.9694 18.983 2.1503 19.0849 2.35877 19.0849H15.6805C15.889 19.0849 16.0699 18.9792 16.1722 18.8055C16.2706 18.6319 16.2666 18.4281 16.1565 18.2619L15.2361 16.8348C15.122 16.6574 15.1771 16.4232 15.362 16.3138C15.5469 16.2043 15.7907 16.2572 15.9048 16.4346L16.8251 17.8617C17.0887 18.2656 17.1005 18.7564 16.8606 19.1717C16.6127 19.5908 16.1722 19.84 15.6766 19.84Z" fill="#316070" stroke="#316070" stroke-width="0.2"/>
<path d="M9.45419 22.9989H8.56915C6.53566 22.9989 4.87988 21.4096 4.87988 19.4577C4.87988 19.25 5.05678 19.0801 5.27315 19.0801H12.7502C12.9666 19.0801 13.1435 19.25 13.1435 19.4577C13.1435 21.4133 11.4877 22.9989 9.45419 22.9989ZM5.69399 19.8352C5.88678 21.1943 7.10205 22.2438 8.56915 22.2438H9.45419C10.9213 22.2438 12.1365 21.1943 12.3293 19.8352H5.69399Z" fill="#316070" stroke="#316070" stroke-width="0.2"/>
<path d="M10.9966 4.46579C10.7804 4.46579 10.6033 4.29588 10.6033 4.0883V3.27655C10.6033 2.8726 10.4381 2.48754 10.1353 2.20055C9.84027 1.91741 9.43122 1.75508 9.01427 1.75508C8.13724 1.75508 7.42531 2.43844 7.42531 3.27655V4.0883C7.42531 4.29588 7.24831 4.46579 7.03194 4.46579C6.81568 4.46579 6.63867 4.29588 6.63867 4.0883V3.27655C6.63867 2.02318 7.7045 1 9.01427 1C9.6397 1 10.2532 1.24163 10.6937 1.66447C11.1422 2.09489 11.39 2.66875 11.39 3.27655V4.0883C11.39 4.29973 11.213 4.46579 10.9966 4.46579Z" fill="#316070" stroke="#316070" stroke-width="0.2"/>
<path d="M15.7707 15.8572C15.578 15.8572 15.4128 15.7251 15.3813 15.5439L15.1768 14.3621C15.1414 14.3508 15.106 14.3395 15.0705 14.3245L14.1109 15.0909C13.9574 15.2117 13.7372 15.2041 13.5916 15.0757L11.7274 13.4145C11.5818 13.2861 11.5622 13.0747 11.6762 12.92L12.4 11.9421C12.3842 11.9082 12.3685 11.8742 12.3527 11.844L11.1138 11.7345C10.9171 11.7156 10.7637 11.5608 10.7558 11.372L10.6614 8.9294C10.6536 8.7406 10.7952 8.57443 10.9879 8.54423L12.215 8.34796C12.2268 8.31402 12.2386 8.28382 12.2544 8.24978L11.4599 7.32863C11.334 7.18135 11.3419 6.96993 11.4757 6.83023L13.2063 5.04066C13.3399 4.90106 13.5642 4.88217 13.7215 4.98783L14.7402 5.6825C14.7717 5.66746 14.807 5.6523 14.8385 5.64099L14.9526 4.44802C14.9722 4.25922 15.1335 4.11194 15.3301 4.10436L17.875 4.01375C18.0794 4.01001 18.2447 4.14214 18.2761 4.3272L18.4846 5.50886C18.52 5.52018 18.5554 5.53149 18.5869 5.54664L19.5465 4.78399C19.7 4.66317 19.9202 4.67075 20.0658 4.79903L21.93 6.46021C22.0756 6.5886 22.0993 6.80002 21.9812 6.95488L21.2575 7.92885C21.2733 7.9629 21.2889 7.9931 21.3047 8.02704L22.5476 8.13654C22.7443 8.15543 22.8977 8.31018 22.9055 8.49898L22.9999 10.9417C23.0078 11.1304 22.8662 11.2966 22.6734 11.3268L21.4463 11.523C21.4345 11.5571 21.4188 11.591 21.407 11.625L22.2014 12.5462C22.3273 12.6935 22.3195 12.9049 22.1858 13.0445L20.4552 14.8341C20.3214 14.9738 20.1011 14.9964 19.9399 14.8869L18.9212 14.1922C18.8858 14.2074 18.8504 14.2224 18.8189 14.2376L18.7049 15.4268C18.6852 15.6156 18.524 15.7628 18.3273 15.7704L15.7825 15.861C15.7825 15.8572 15.7786 15.8572 15.7707 15.8572ZM15.0037 13.509C15.0587 13.509 15.1139 13.5203 15.1649 13.5429C15.3145 13.6071 15.4678 13.6637 15.633 13.709C15.7786 13.7506 15.8847 13.8676 15.9123 14.0073L16.1011 15.087L17.9536 15.0229L18.0559 13.9356C18.0717 13.7921 18.17 13.6675 18.3115 13.6184C18.457 13.5655 18.6144 13.4976 18.7757 13.4145C18.9055 13.3504 19.0667 13.358 19.1848 13.441L20.1129 14.0714L21.3756 12.7689L20.6478 11.927C20.5534 11.8176 20.5299 11.6666 20.5889 11.5343C20.6596 11.372 20.7187 11.221 20.7658 11.0738C20.8092 10.9341 20.931 10.8322 21.0766 10.8057L22.2014 10.6245L22.1307 8.84626L20.998 8.74434C20.8484 8.72929 20.7187 8.63484 20.6675 8.50271C20.6125 8.35927 20.5417 8.21584 20.4552 8.06482C20.3843 7.93643 20.3922 7.78168 20.4787 7.6646L21.1395 6.77366L19.7826 5.56553L18.9054 6.26394C18.7914 6.35455 18.634 6.37718 18.4964 6.32061C18.347 6.25636 18.1896 6.1998 18.0165 6.15071C17.875 6.10919 17.7727 5.99211 17.7451 5.85241L17.5524 4.77267L15.6998 4.84066L15.5977 5.93171C15.5819 6.07515 15.4836 6.1998 15.3459 6.24879C15.1886 6.30546 15.0391 6.3696 14.8857 6.4489C14.7559 6.51315 14.5947 6.50557 14.4767 6.42254L13.5484 5.792L12.2859 7.09447L13.0135 7.93643C13.1079 8.04593 13.1316 8.19695 13.0725 8.32534C12.9938 8.49898 12.9388 8.64242 12.8955 8.78212C12.8523 8.92182 12.7303 9.02375 12.5847 9.05021L11.4639 9.23143L11.5307 11.0096L12.6635 11.1115C12.8129 11.1267 12.9428 11.221 12.9938 11.357C13.0489 11.4967 13.1197 11.6477 13.2063 11.8024C13.277 11.927 13.2652 12.0818 13.1787 12.1951L12.5218 13.0861L13.8788 14.2943L14.7559 13.5957C14.8267 13.5392 14.9132 13.509 15.0037 13.509Z" fill="#316070" stroke="#316070" stroke-width="0.2"/>
<path d="M16.8287 13.1102C15.9909 13.1102 15.1964 12.8119 14.5749 12.2607C13.926 11.6831 13.5523 10.8978 13.5169 10.0484C13.4501 8.29662 14.8778 6.81666 16.7067 6.75241C18.5317 6.68454 20.0735 8.05873 20.1405 9.81425C20.2073 11.566 18.7796 13.046 16.9505 13.1102C16.9152 13.1102 16.8719 13.1102 16.8287 13.1102ZM16.8326 7.50375C16.8011 7.50375 16.7696 7.50375 16.7382 7.50375C15.3458 7.55285 14.2564 8.68168 14.3074 10.0182C14.3311 10.6675 14.6182 11.264 15.1138 11.7057C15.6094 12.1475 16.2505 12.3815 16.927 12.3513C18.3194 12.3023 19.4089 11.1734 19.3577 9.83698C19.3066 8.5344 18.1817 7.50375 16.8326 7.50375Z" fill="#316070" stroke="#316070" stroke-width="0.2"/>
</svg>
