<svg width="24" height="24" viewBox="0 0 24 24" fill="none" xmlns="http://www.w3.org/2000/svg">
<path fill-rule="evenodd" clip-rule="evenodd" d="M12.8347 3.06454C13.0908 2.94671 13.3907 2.99272 13.6014 3.18214L21.4354 10.225C22.1882 10.9018 22.1882 12.0982 21.4354 12.775L13.6014 19.8178C13.3907 20.0073 13.0908 20.0533 12.8347 19.9355C12.5787 19.8176 12.4141 19.5578 12.4141 19.2714V15.6293C10.5581 15.6355 8.971 15.6876 7.5301 16.1085C5.99605 16.5567 4.60306 17.4333 3.28644 19.2228C3.10187 19.4738 2.78053 19.576 2.48869 19.4769C2.19684 19.3778 2 19.0994 2 18.7857C2 14.299 3.45697 11.4088 5.63701 9.65641C7.63243 8.05247 10.1369 7.48084 12.4141 7.38614V3.72858C12.4141 3.44219 12.5787 3.18236 12.8347 3.06454ZM13.8435 5.34252V7.90571C13.8435 8.41416 13.4417 8.82402 12.9468 8.82959C10.6965 8.8549 8.32167 9.35407 6.52206 10.8007C5.0664 11.9707 3.91046 13.823 3.54812 16.7527C4.66047 15.7142 5.85284 15.0827 7.13635 14.7077C8.93686 14.1818 10.8914 14.1719 12.9373 14.1714C13.4344 14.1713 13.8435 14.5814 13.8435 15.0943V17.6575L20.49 11.6821C20.5975 11.5855 20.5975 11.4145 20.49 11.3178L13.8435 5.34252Z" fill="#316070"/>
</svg>
